<svg 
  xmlns="http://www.w3.org/2000/svg"
  xmlns:xlink="http://www.w3.org/1999/xlink"
  width="100%"
  height="100%"
  viewBox="0 0 515 488"
  role="img"
  artist="Katerina Limpitsouni"
  source="https://undraw.co/"
>
  <circle cx="6.81265" cy="6.81404" r="6.81334" fill="#d2d2d2"/>
  <circle cx="41.30169" cy="6.81404" r="6.81334" fill="#d2d2d2"/>
  <circle cx="75.79073" cy="6.81404" r="6.81334" fill="#d2d2d2"/>
  <circle cx="110.27977" cy="6.81404" r="6.81334" fill="#d2d2d2"/>
  <circle cx="144.76881" cy="6.81404" r="6.81334" fill="#d2d2d2"/>
  <circle cx="179.25785" cy="6.81404" r="6.81334" fill="#d2d2d2"/>
  <circle cx="213.74689" cy="6.81404" r="6.81334" fill="#d2d2d2"/>
  <circle cx="248.23593" cy="6.81404" r="6.81334" fill="#d2d2d2"/>
  <circle cx="282.72497" cy="6.81404" r="6.81334" fill="#d2d2d2"/>
  <circle cx="317.21401" cy="6.81404" r="6.81334" fill="#d2d2d2"/>
  <circle cx="6.81265" cy="41.73599" r="6.81334" fill="#d2d2d2"/>
  <circle cx="41.30169" cy="41.73599" r="6.81334" fill="#d2d2d2"/>
  <circle cx="75.79073" cy="41.73599" r="6.81334" fill="#d2d2d2"/>
  <circle cx="110.27977" cy="41.73599" r="6.81334" fill="#0075ff"/>
  <circle cx="144.76881" cy="41.73599" r="6.81334" fill="#d2d2d2"/>
  <circle cx="179.25785" cy="41.73599" r="6.81334" fill="#d2d2d2"/>
  <circle cx="213.74689" cy="41.73599" r="6.81334" fill="#d2d2d2"/>
  <circle cx="248.23593" cy="41.73599" r="6.81334" fill="#d2d2d2"/>
  <circle cx="282.72497" cy="41.73599" r="6.81334" fill="#d2d2d2"/>
  <circle cx="317.21401" cy="41.73599" r="6.81334" fill="#d2d2d2"/>
  <circle cx="6.81265" cy="76.65794" r="6.81334" fill="#d2d2d2"/>
  <circle cx="41.30169" cy="76.65794" r="6.81334" fill="#d2d2d2"/>
  <circle cx="75.79073" cy="76.65794" r="6.81334" fill="#d2d2d2"/>
  <circle cx="110.27977" cy="76.65794" r="6.81334" fill="#d2d2d2"/>
  <circle cx="144.76881" cy="76.65794" r="6.81334" fill="#d2d2d2"/>
  <circle cx="179.25785" cy="76.65794" r="6.81334" fill="#d2d2d2"/>
  <circle cx="213.74689" cy="76.65794" r="6.81334" fill="#d2d2d2"/>
  <circle cx="248.23593" cy="76.65794" r="6.81334" fill="#d2d2d2"/>
  <circle cx="282.72497" cy="76.65794" r="6.81334" fill="#d2d2d2"/>
  <circle cx="317.21401" cy="76.65794" r="6.81334" fill="#d2d2d2"/>
  <circle cx="6.81265" cy="111.57988" r="6.81334" fill="#d2d2d2"/>
  <circle cx="41.30169" cy="111.57988" r="6.81334" fill="#d2d2d2"/>
  <circle cx="75.79073" cy="111.57988" r="6.81334" fill="#d2d2d2"/>
  <circle cx="110.27977" cy="111.57988" r="6.81334" fill="#d2d2d2"/>
  <circle cx="144.76881" cy="111.57988" r="6.81334" fill="#d2d2d2"/>
  <circle cx="179.25785" cy="111.57988" r="6.81334" fill="#d2d2d2"/>
  <circle cx="213.74689" cy="111.57988" r="6.81334" fill="#d2d2d2"/>
  <circle cx="248.23593" cy="111.57988" r="6.81334" fill="#d2d2d2"/>
  <circle cx="282.72497" cy="111.57988" r="6.81334" fill="#d2d2d2"/>
  <circle cx="317.21401" cy="111.57988" r="6.81334" fill="#d2d2d2"/>
  <circle cx="6.81265" cy="146.50183" r="6.81334" fill="#d2d2d2"/>
  <circle cx="41.30169" cy="146.50183" r="6.81334" fill="#0075ff"/>
  <circle cx="75.79073" cy="146.50183" r="6.81334" fill="#d2d2d2"/>
  <circle cx="110.27977" cy="146.50183" r="6.81334" fill="#d2d2d2"/>
  <circle cx="144.76881" cy="146.50183" r="6.81334" fill="#d2d2d2"/>
  <circle cx="179.25785" cy="146.50183" r="6.81334" fill="#d2d2d2"/>
  <circle cx="213.74689" cy="146.50183" r="6.81334" fill="#d2d2d2"/>
  <circle cx="248.23593" cy="146.50183" r="6.81334" fill="#d2d2d2"/>
  <circle cx="282.72497" cy="146.50183" r="6.81334" fill="#d2d2d2"/>
  <circle cx="317.21401" cy="146.50183" r="6.81334" fill="#d2d2d2"/>
  <circle cx="6.81265" cy="181.42378" r="6.81334" fill="#d2d2d2"/>
  <circle cx="41.30169" cy="181.42378" r="6.81334" fill="#d2d2d2"/>
  <circle cx="75.79073" cy="181.42378" r="6.81334" fill="#d2d2d2"/>
  <circle cx="110.27977" cy="181.42378" r="6.81334" fill="#d2d2d2"/>
  <circle cx="144.76881" cy="181.42378" r="6.81334" fill="#d2d2d2"/>
  <circle cx="179.25785" cy="181.42378" r="6.81334" fill="#d2d2d2"/>
  <circle cx="213.74689" cy="181.42378" r="6.81334" fill="#d2d2d2"/>
  <circle cx="248.23593" cy="181.42378" r="6.81334" fill="#d2d2d2"/>
  <circle cx="282.72497" cy="181.42378" r="6.81334" fill="#d2d2d2"/>
  <circle cx="317.21401" cy="181.42378" r="6.81334" fill="#d2d2d2"/>
  <circle cx="6.81265" cy="216.34573" r="6.81334" fill="#d2d2d2"/>
  <circle cx="41.30169" cy="216.34573" r="6.81334" fill="#d2d2d2"/>
  <circle cx="75.79073" cy="216.34573" r="6.81334" fill="#0075ff"/>
  <circle cx="110.27977" cy="216.34573" r="6.81334" fill="#d2d2d2"/>
  <circle cx="144.76881" cy="216.34573" r="6.81334" fill="#d2d2d2"/>
  <circle cx="179.25785" cy="216.34573" r="6.81334" fill="#d2d2d2"/>
  <circle cx="213.74689" cy="216.34573" r="6.81334" fill="#d2d2d2"/>
  <circle cx="248.23593" cy="216.34573" r="6.81334" fill="#d2d2d2"/>
  <circle cx="282.72497" cy="216.34573" r="6.81334" fill="#d2d2d2"/>
  <circle cx="317.21401" cy="216.34573" r="6.81334" fill="#d2d2d2"/>
  <circle cx="6.81265" cy="251.26768" r="6.81334" fill="#d2d2d2"/>
  <circle cx="41.30169" cy="251.26768" r="6.81334" fill="#d2d2d2"/>
  <circle cx="75.79073" cy="251.26768" r="6.81334" fill="#d2d2d2"/>
  <circle cx="110.27977" cy="251.26768" r="6.81334" fill="#d2d2d2"/>
  <circle cx="144.76881" cy="251.26768" r="6.81334" fill="#d2d2d2"/>
  <circle cx="179.25785" cy="251.26768" r="6.81334" fill="#d2d2d2"/>
  <circle cx="213.74689" cy="251.26768" r="6.81334" fill="#d2d2d2"/>
  <circle cx="248.23593" cy="251.26768" r="6.81334" fill="#d2d2d2"/>
  <circle cx="282.72497" cy="251.26768" r="6.81334" fill="#d2d2d2"/>
  <circle cx="317.21401" cy="251.26768" r="6.81334" fill="#d2d2d2"/>
  <circle cx="6.81265" cy="286.18963" r="6.81334" fill="#d2d2d2"/>
  <circle cx="41.30169" cy="286.18963" r="6.81334" fill="#d2d2d2"/>
  <circle cx="75.79073" cy="286.18963" r="6.81334" fill="#d2d2d2"/>
  <circle cx="110.27977" cy="286.18963" r="6.81334" fill="#d2d2d2"/>
  <circle cx="144.76881" cy="286.18963" r="6.81334" fill="#d2d2d2"/>
  <circle cx="179.25785" cy="286.18963" r="6.81334" fill="#d2d2d2"/>
  <circle cx="213.74689" cy="286.18963" r="6.81334" fill="#d2d2d2"/>
  <circle cx="248.23593" cy="286.18963" r="6.81334" fill="#d2d2d2"/>
  <circle cx="282.72497" cy="286.18963" r="6.81334" fill="#d2d2d2"/>
  <circle cx="317.21401" cy="286.18963" r="6.81334" fill="#d2d2d2"/>
  <circle cx="6.81265" cy="321.11157" r="6.81334" fill="#d2d2d2"/>
  <circle cx="41.30169" cy="321.11157" r="6.81334" fill="#d2d2d2"/>
  <circle cx="75.79073" cy="321.11157" r="6.81334" fill="#d2d2d2"/>
  <circle cx="110.27977" cy="321.11157" r="6.81334" fill="#d2d2d2"/>
  <circle cx="144.76881" cy="321.11157" r="6.81334" fill="#d2d2d2"/>
  <circle cx="179.25785" cy="321.11157" r="6.81334" fill="#d2d2d2"/>
  <circle cx="213.74689" cy="321.11157" r="6.81334" fill="#d2d2d2"/>
  <circle cx="248.23593" cy="321.11157" r="6.81334" fill="#d2d2d2"/>
  <circle cx="282.72497" cy="321.11157" r="6.81334" fill="#d2d2d2"/>
  <circle cx="317.21401" cy="321.11157" r="6.81334" fill="#d2d2d2"/>
  <path d="M609.20925,193.8305a8.614,8.614,0,0,1,8.614,8.614V547.00388a8.614,8.614,0,0,1-8.614,8.614H361.98784a8.614,8.614,0,0,1-8.614-8.614V202.44449a8.614,8.614,0,0,1,8.614-8.614H609.20925" transform="translate(-208.80496 -132.93873)" fill="#e6e6e6"/>
  <path d="M362.99057,546.001H608.20632V203.44727H362.99057Z" transform="translate(-208.80496 -132.93873)" fill="#fdfdfd"/>
  <path d="M553.64892,257.64283a1.72279,1.72279,0,0,1,1.72279,1.7228v3.4456a1.72279,1.72279,0,0,1-1.72279,1.72279H417.548a1.72278,1.72278,0,0,1-1.72279-1.72279v-3.4456a1.72278,1.72278,0,0,1,1.72279-1.7228h136.101" transform="translate(-208.80496 -132.93873)" fill="#e6e6e6"/>
  <path d="M553.64892,274.0094a1.7228,1.7228,0,0,1,1.72279,1.7228v3.4456a1.72279,1.72279,0,0,1-1.72279,1.72279H417.548a1.72278,1.72278,0,0,1-1.72279-1.72279v-3.4456a1.72279,1.72279,0,0,1,1.72279-1.7228h136.101" transform="translate(-208.80496 -132.93873)" fill="#e6e6e6"/>
  <path d="M553.64892,290.376a1.7228,1.7228,0,0,1,1.72279,1.72279v3.4456a1.7228,1.7228,0,0,1-1.72279,1.72279H417.548a1.72279,1.72279,0,0,1-1.72279-1.72279v-3.4456A1.72279,1.72279,0,0,1,417.548,290.376h136.101" transform="translate(-208.80496 -132.93873)" fill="#0075ff"/>
  <path d="M553.64892,307.10073a1.72279,1.72279,0,0,1,1.72279,1.72279v3.4456a1.72279,1.72279,0,0,1-1.72279,1.72279H417.548a1.72278,1.72278,0,0,1-1.72279-1.72279v-3.4456a1.72278,1.72278,0,0,1,1.72279-1.72279h136.101" transform="translate(-208.80496 -132.93873)" fill="#e6e6e6"/>
  <path d="M553.64892,323.4673a1.72279,1.72279,0,0,1,1.72279,1.72279v3.4456a1.72279,1.72279,0,0,1-1.72279,1.7228H417.548a1.72278,1.72278,0,0,1-1.72279-1.7228v-3.4456a1.72278,1.72278,0,0,1,1.72279-1.72279h136.101" transform="translate(-208.80496 -132.93873)" fill="#e6e6e6"/>
  <path d="M553.64892,339.83387a1.7228,1.7228,0,0,1,1.72279,1.72279v3.4456a1.72281,1.72281,0,0,1-1.72279,1.7228H417.548a1.7228,1.7228,0,0,1-1.72279-1.7228v-3.4456a1.72279,1.72279,0,0,1,1.72279-1.72279h136.101" transform="translate(-208.80496 -132.93873)" fill="#e6e6e6"/>
  <path d="M418.41724,394.89a2.002,2.002,0,0,0-2,2v92.91552a2.0023,2.0023,0,0,0,2,2H552.5481a2.00229,2.00229,0,0,0,2-2V396.89a2.002,2.002,0,0,0-2-2Z" transform="translate(-208.80496 -132.93873)" fill="#0075ff"/>
  <polygon points="277.241 161.182 275.833 160.808 306.56 45.221 484.785 45.221 484.785 46.678 307.679 46.678 277.241 161.182" fill="#3f3d56"/>
  <path d="M708.15259,194.17916a15.29091,15.29091,0,1,1,15.2909-15.29091A15.30831,15.30831,0,0,1,708.15259,194.17916Zm0-29.12554a13.83463,13.83463,0,1,0,13.83462,13.83463A13.85037,13.85037,0,0,0,708.15259,165.05362Z" transform="translate(-208.80496 -132.93873)" fill="#3f3d56"/>
  <circle cx="499.34763" cy="45.94952" r="5.82511" fill="#0075ff"/>
  <polygon points="272.477 356.941 273.884 357.317 242.937 472.845 64.712 472.504 64.715 471.047 241.82 471.387 272.477 356.941" fill="#3f3d56"/>
  <path d="M258.98467,589.39543A15.29091,15.29091,0,1,1,243.66449,604.657,15.30832,15.30832,0,0,1,258.98467,589.39543Zm-.05582,29.12548a13.83463,13.83463,0,1,0-13.80809-13.86111A13.85036,13.85036,0,0,0,258.92885,618.52091Z" transform="translate(-208.80496 -132.93873)" fill="#3f3d56"/>
  <circle cx="50.15041" cy="471.74758" r="5.82511" fill="#0075ff"/>
</svg>