<svg width="709" height="517" viewBox="0 0 709 517" fill="none" xmlns="http://www.w3.org/2000/svg">
<g clip-path="url(#clip0_87_783)">
<path d="M480.109 187.417C480.109 196.334 484.57 205.409 493.488 205.409C502.405 205.409 514.708 198.95 511.94 185.111C510.191 176.367 505.173 171.271 496.255 171.271C487.338 171.271 480.109 178.5 480.109 187.417Z" fill="#2E2E2E"/>
<path d="M517.515 314.821C515.679 312.785 515.842 309.646 517.878 307.81C518.095 307.614 518.329 307.438 518.577 307.283L514.674 290.08L523.254 293.308L525.645 309.15C526.945 311.581 526.028 314.605 523.597 315.905C521.563 316.992 519.048 316.544 517.515 314.821Z" fill="#A0616A"/>
<path d="M499.303 253.843L505.291 254.452C505.291 254.452 503.725 263.324 506.174 265.322C508.624 267.32 507.636 267.311 507.622 268.792C507.774 270.942 508.831 272.926 510.532 274.25C512.492 275.75 516.569 302.462 516.569 302.462L525.455 302.547C525.19 300.25 525.212 297.928 525.521 295.636C526.048 292.186 528.711 283.493 527.738 282.003C526.765 280.512 527.277 277.772 527.306 274.81C527.334 271.848 523.097 275.121 523.144 270.184C523.192 265.248 517.757 234.272 518.293 229.834C518.83 225.396 513.437 221.395 513.437 221.395L508.501 221.347L499.303 253.843Z" fill="#3A404F"/>
<path d="M435.729 212.183C435.164 214.719 436.762 217.232 439.298 217.796C439.568 217.856 439.843 217.893 440.12 217.904L444.924 233.914L450.495 227.25L445.079 213.069C445.017 210.458 442.85 208.391 440.239 208.453C438.054 208.505 436.19 210.047 435.729 212.183Z" fill="#A0616A"/>
<path d="M486.449 217.398C486.449 217.398 474.835 213.043 468.538 236.89L460.18 245.547L453.157 232.858L454.086 229.848L448.659 217.544L439.354 222.884L441.644 231.331L441.257 235.507L443.481 238.104L447.12 251.528L449.397 255.913C449.397 255.913 452.269 261.529 457.282 262.453C458.618 262.704 459.985 262.743 461.333 262.568C464.54 262.067 467.511 260.583 469.839 258.322C476.036 252.795 481.898 246.903 487.391 240.676L486.449 217.398Z" fill="#3A404F"/>
<path d="M502.026 257.329L502.848 261.244L503.546 275.685L475.482 271.885L473.327 255.163L476.305 250.269L502.026 257.329Z" fill="#A0616A"/>
<path d="M492.923 205.175C500.259 205.175 506.205 199.228 506.205 191.893C506.205 184.557 500.259 178.611 492.923 178.611C485.587 178.611 479.641 184.557 479.641 191.893C479.641 199.228 485.587 205.175 492.923 205.175Z" fill="#A0616A"/>
<path d="M515.177 222.952C512.985 217.782 508.449 213.975 502.977 212.712L502.927 212.702L500.297 209.162L489.627 210.232L487.677 214.232L482.617 217.242H482.607L482.597 217.252L479.947 218.832L471.157 229.122L471.147 229.132C468.539 230.874 466.768 233.618 466.257 236.712C466.125 237.596 466.081 238.49 466.127 239.382C466.417 244.852 469.837 249.722 470.307 250.372L471.457 256.842L471.687 258.172L473.757 258.472L502.917 262.642L503.727 262.762L503.967 262.792L504.807 260.622V260.602L512.937 239.332L516.587 229.842C516.597 227.473 516.117 225.127 515.177 222.952Z" fill="#3A404F"/>
<path d="M506.823 195.375C506.702 195.356 506.582 195.331 506.462 195.312C504.39 194.944 502.318 194.583 500.252 194.209L500.062 189.527L497.56 193.721C491.851 195.616 486.51 194.545 481.485 192.182C479.828 191.395 478.22 190.508 476.67 189.527C475.589 182.932 478.316 177.734 485.319 177.071C485.536 177.05 485.692 176.868 485.883 176.773L485.889 176.767C486.212 176.615 486.542 176.469 486.871 176.336C492.136 174.278 498.115 175.437 502.229 179.313C506.385 183.542 508.115 189.589 506.823 195.375Z" fill="#2E2E2E"/>
<path d="M519.907 302.492C519.319 298.569 518.355 294.711 517.027 290.972V290.962C515.915 287.801 514.53 284.743 512.887 281.822C512.882 281.822 512.877 281.818 512.877 281.813C510.512 277.41 507.425 273.435 503.747 270.052L503.357 269.642H503.257L475.097 268.952H474.807L474.487 268.942C474.487 268.942 474.367 269.292 474.137 269.952C474.128 269.994 474.115 270.034 474.097 270.072C474.017 270.332 473.917 270.632 473.797 270.962C473.727 271.182 473.647 271.412 473.567 271.662C473.477 271.932 473.377 272.212 473.277 272.512C472.497 274.842 471.357 278.222 469.957 282.412C469.747 283.052 469.527 283.712 469.297 284.402C463.957 300.472 455.367 326.732 447.867 351.622H474.467C477.047 344.162 479.787 333.522 479.787 333.522C480.857 332.252 480.797 328.802 480.797 328.802L489.157 320.022L495.177 351.622H520.437L520.627 316.452V316.152C520.824 311.586 520.583 307.012 519.907 302.492Z" fill="white"/>
<path d="M501.734 176.437V176.448C501.733 177.143 501.822 177.835 501.998 178.508C502.026 178.626 502.06 178.749 502.099 178.867V178.873C502.863 181.307 504.722 183.243 507.123 184.104C507.297 184.172 507.477 184.228 507.656 184.278C508.035 184.388 508.421 184.467 508.813 184.514C509.164 184.564 509.519 184.588 509.874 184.587C510.151 184.588 510.428 184.575 510.704 184.548C511.35 184.482 511.986 184.337 512.596 184.115C512.692 184.088 512.785 184.054 512.877 184.014C512.923 183.998 512.967 183.979 513.011 183.958C517.162 182.221 519.118 177.448 517.381 173.297C517.329 173.173 517.274 173.05 517.216 172.928L517.21 172.923C516.811 172.087 516.27 171.327 515.61 170.677C514.14 169.212 513.492 165.541 511.257 165.541C511.151 165.539 511.044 165.543 510.937 165.552C509.439 165.602 506.668 168.836 505.49 169.6C504.614 170.153 503.855 170.872 503.255 171.716C502.629 172.584 502.183 173.569 501.942 174.612C501.804 175.211 501.735 175.823 501.734 176.437Z" fill="#2E2E2E"/>
<path d="M511.679 173.602C512.943 175.074 514.922 175.646 516.707 176.412C523.104 179.218 527.703 185.001 528.997 191.866C529.49 194.62 529.426 197.471 530.205 200.156C530.98 202.84 532.899 205.475 535.653 205.941C537.517 206.259 539.385 205.539 541.138 204.829C542.102 204.441 543.067 204.052 544.031 203.662C543.025 201.138 542.021 198.615 541.018 196.091C542.63 198.473 544.504 200.666 546.605 202.628C550.06 201.235 553.518 199.842 556.98 198.449C548.464 198.481 549.917 190.214 548.012 181.92C546.965 177.362 538.047 174.276 536.299 169.939C533.568 163.141 525.843 159.843 519.045 162.574C516.115 163.751 513.701 165.934 512.237 168.731C510.489 169.427 510.438 172.149 511.679 173.602Z" fill="#2E2E2E"/>
<path d="M475.509 270.973C471.532 272.01 468.313 274.926 466.888 278.781C466.384 279.871 466.398 281.129 466.925 282.208C467.336 282.978 468.253 283.326 469.072 283.022C469.895 282.579 470.551 281.88 470.941 281.032C471.514 279.943 472.007 278.813 472.415 277.652C473.083 275.9 474.508 272.975 472.473 271.605C470.762 270.453 468.496 270.901 466.57 270.822C464.489 270.736 462.176 269.939 461.436 267.782C460.717 265.685 462.403 263.712 464.22 262.914C466.439 261.994 468.969 262.235 470.974 263.557C472.925 264.91 474.319 266.926 474.895 269.229C474.984 269.601 474.755 269.975 474.383 270.064C474.028 270.149 473.669 269.945 473.561 269.597C473.05 267.46 471.705 265.617 469.824 264.479C467.957 263.402 465.636 263.492 463.858 264.712C462.925 265.293 462.491 266.423 462.797 267.479C463.266 268.415 464.148 269.077 465.179 269.263C467.375 269.794 469.671 269.107 471.86 269.808C473.897 270.331 475.196 272.325 474.849 274.399C474.621 275.644 474.252 276.859 473.749 278.02C473.322 279.213 472.823 280.38 472.254 281.513C471.385 283.156 469.818 284.933 467.751 284.452C465.394 283.903 464.835 281.151 465.34 279.128C466.706 274.459 470.43 270.854 475.141 269.639C475.513 269.55 475.886 269.78 475.975 270.152C476.059 270.506 475.856 270.864 475.509 270.973Z" fill="white"/>
<path d="M579.547 352.622H415.547C411.683 352.618 408.551 349.486 408.547 345.622V122.622C408.551 118.758 411.683 115.627 415.547 115.622H579.547C583.411 115.627 586.543 118.758 586.547 122.622V345.622C586.542 349.486 583.411 352.618 579.547 352.622ZM415.547 117.622C412.787 117.625 410.55 119.862 410.547 122.622V345.622C410.55 348.382 412.787 350.619 415.547 350.622H579.547C582.307 350.619 584.544 348.382 584.547 345.622V122.622C584.544 119.862 582.307 117.625 579.547 117.622H415.547Z" fill="#3A404F"/>
<path d="M605.61 34.0995H140.317C139.319 34.0782 138.528 33.252 138.549 32.2543C138.57 31.2866 139.349 30.507 140.317 30.4863H605.61C606.608 30.5077 607.4 31.3338 607.378 32.3315C607.357 33.2992 606.578 34.0788 605.61 34.0995Z" fill="#CACACA"/>
<path d="M696 248.622H643C635.82 248.622 630 242.802 630 235.622C630 228.442 635.82 222.622 643 222.622H696C703.18 222.622 709 228.442 709 235.622C709 242.802 703.18 248.622 696 248.622Z" fill="#0075FF"/>
<g opacity="0.38">
<path d="M285.221 279.497C282.718 277.448 282.35 273.759 284.399 271.256C284.618 270.989 284.859 270.742 285.121 270.518L271.883 235.909L282.463 238.15L293.696 271.439C295.643 274.044 295.11 277.733 292.506 279.681C290.327 281.31 287.315 281.234 285.221 279.497Z" fill="#FFB8B8"/>
<path d="M290.668 241.592L278.788 192.152L273.678 177.772C273.672 177.767 273.669 177.76 273.668 177.752C272.836 175.403 271.096 173.486 268.838 172.432C266.579 171.35 263.979 171.228 261.628 172.092C261.427 172.162 261.23 172.242 261.038 172.332C260.628 172.519 260.23 172.733 259.848 172.972C257.643 174.362 256.112 176.603 255.618 179.162L254.718 183.882L254.338 185.892L268.368 234.932V234.952L273.248 252.032L275.508 259.912V259.922L278.128 269.092L278.188 269.282L284.478 268.862H284.488L285.438 268.792L292.638 268.312L293.678 268.242L290.668 241.592Z" fill="#2E2E2E"/>
<path d="M242.437 159.047L268.899 212.561L285.639 269.465C250.371 276.342 206.119 291.053 202.934 269.954C204.896 211.128 211.08 192.364 223.845 166.862L242.437 159.047Z" fill="#2E2E2E"/>
<path d="M277.817 317.622H256.087L247.277 287.852L241.077 317.242C241.057 317.372 241.047 317.492 241.027 317.622H217.867C218.617 308.422 219.987 292.422 220.637 290.152C221.557 286.932 220.637 286.932 218.797 285.092C218.387 284.682 218.247 283.042 218.287 280.752C218.397 272.862 220.547 257.232 220.547 257.232L223.097 252.512L223.977 250.872L269.397 249.272L269.787 249.262L270.627 252.922L271.657 257.432L273.467 265.342L275.137 271.652L275.227 271.972V273.842C274.943 274.493 274.813 275.202 274.847 275.912C274.847 276.552 276.287 296.492 277.817 317.622Z" fill="#2E2E2E"/>
<path d="M239.336 166.983L242.454 159.522L252.106 159.691L262.17 173.927L272.733 218.35C272.733 218.35 276.527 250.801 272.733 252.514C268.939 254.227 222.998 253.315 222.998 253.315C225.125 235.79 226.71 217.963 228.381 207.313C233.903 172.116 236.509 179.523 239.336 166.983Z" fill="#0075FF"/>
<path d="M252.105 159.691C252.105 159.691 272.896 171.71 273.709 177.983C274.522 184.256 277.245 261.04 277.245 261.04L269.893 256.289L267.883 228.304C269.285 203.437 265.865 184.902 258.91 171.008L252.105 159.691Z" fill="#2E2E2E"/>
<path d="M261.185 144.296C262.438 136.572 257.193 129.294 249.468 128.04C241.744 126.787 234.466 132.032 233.212 139.757C231.959 147.481 237.204 154.759 244.929 156.013C252.653 157.266 259.931 152.021 261.185 144.296Z" fill="#FFB8B8"/>
<path d="M229.739 141.185C230.372 144.056 231.513 146.79 233.109 149.259C233.533 150.101 234.166 150.82 234.947 151.346C235.764 151.87 236.838 151.736 237.501 151.027L237.845 150.746C237.169 150.33 236.566 149.806 236.058 149.195C235.548 148.574 235.37 147.744 235.579 146.968C235.834 146.184 236.663 145.741 237.456 145.966C238.286 146.291 238.79 147.491 239.658 147.306C240.36 147.153 240.507 146.227 240.507 145.5C240.481 141.696 242.32 136.289 243.743 136.455C245.181 136.534 246.621 136.341 247.987 135.887C249.356 135.433 250.8 135.248 252.238 135.345C252.34 135.358 252.443 135.377 252.551 135.396C252.782 134.673 253.099 133.981 253.496 133.334C253.451 134.115 253.49 134.898 253.611 135.67C254.756 136.142 255.938 136.516 257.147 136.787C258.462 136.972 261.353 140.904 261.487 140.502C261.718 139.779 262.035 139.087 262.432 138.44C262.387 139.221 262.425 140.004 262.547 140.777C262.553 140.808 262.553 140.834 262.559 140.866C263.198 140.017 263.587 138.983 263.37 139.774C265.508 134.936 264.678 131.47 261.315 127.392C260.659 126.515 259.792 125.819 258.793 125.369C257.777 124.922 256.601 125.038 255.691 125.675C252.898 123.113 248.935 122.268 245.339 123.467C241.835 124.686 239.135 125.4 238.599 129.077C235.615 128.751 232.708 130.165 231.124 132.715C229.614 135.264 229.119 138.288 229.739 141.185Z" fill="#2E2E2E"/>
<path d="M190.034 276.001C188.831 272.999 190.289 269.59 193.292 268.387C193.612 268.258 193.943 268.159 194.28 268.089L199.389 231.388L207.574 238.456L201.345 273.034C201.794 276.255 199.547 279.229 196.326 279.678C193.631 280.053 191.03 278.533 190.034 276.001Z" fill="#FFB8B8"/>
<path d="M235.128 178.032L234.738 174.472C234.37 171.184 232.305 168.33 229.298 166.952C228.156 166.422 226.917 166.133 225.658 166.102H225.648C221.86 166.014 218.388 168.205 216.838 171.662L210.598 185.612L194.848 233.962L189.758 260.262L195.258 261.072L203.228 262.242L203.288 262.252L205.118 262.522L230.688 194.082L230.698 194.062L235.478 181.272L235.128 178.032Z" fill="#2E2E2E"/>
</g>
<path d="M330.547 318.622H166.547C162.683 318.618 159.551 315.486 159.547 311.622V88.6222C159.551 84.758 162.683 81.6265 166.547 81.6222H330.547C334.411 81.6265 337.543 84.758 337.547 88.6222V311.622C337.542 315.486 334.411 318.618 330.547 318.622ZM166.547 83.6222C163.787 83.6254 161.55 85.8621 161.547 88.6222V311.622C161.55 314.382 163.787 316.619 166.547 316.622H330.547C333.307 316.619 335.544 314.382 335.547 311.622V88.6222C335.544 85.8621 333.307 83.6254 330.547 83.6222H166.547Z" fill="#CCCCCC"/>
<path d="M66 248.622H13C5.8203 248.622 0 242.802 0 235.622C0 228.442 5.8203 222.622 13 222.622H66C73.1797 222.622 79 228.442 79 235.622C79 242.802 73.1797 248.622 66 248.622Z" fill="#CCCCCC"/>
<path d="M92 299.622H39C31.8203 299.622 26 293.802 26 286.622C26 279.442 31.8203 273.622 39 273.622H92C99.1797 273.622 105 279.442 105 286.622C105 293.802 99.1797 299.622 92 299.622Z" fill="#CCCCCC"/>
<path d="M120.034 290.085L120.005 292.085L222.424 293.564L222.453 291.564L120.034 290.085Z" fill="#CCCCCC"/>
<path d="M226.736 297.142C224.822 297.143 223.074 296.053 222.233 294.333C221.023 291.851 222.054 288.858 224.536 287.648C227.018 286.438 230.011 287.469 231.222 289.951C232.432 292.433 231.401 295.426 228.919 296.636C228.239 296.967 227.492 297.14 226.736 297.142ZM226.726 289.141C225.068 289.142 223.726 290.487 223.728 292.144C223.728 292.599 223.832 293.047 224.031 293.456C224.759 294.943 226.554 295.559 228.042 294.831C229.529 294.104 230.145 292.308 229.417 290.821C228.914 289.793 227.87 289.141 226.726 289.141Z" fill="#CCCCCC"/>
<path d="M98.0338 237.085L98.0049 239.085L200.424 240.564L200.453 238.564L98.0338 237.085Z" fill="#CCCCCC"/>
<path d="M204.736 244.142C202.822 244.143 201.074 243.053 200.233 241.334C199.022 238.851 200.052 235.856 202.535 234.645C205.017 233.433 208.012 234.464 209.224 236.946C210.435 239.429 209.405 242.423 206.922 243.635C206.241 243.967 205.494 244.141 204.736 244.142ZM202.031 240.457C202.758 241.945 204.553 242.563 206.042 241.837C207.53 241.111 208.148 239.315 207.422 237.827C206.696 236.338 204.9 235.72 203.412 236.446C202.697 236.795 202.15 237.413 201.891 238.165C201.632 238.917 201.683 239.741 202.031 240.457Z" fill="#CCCCCC"/>
<path d="M106 198.622H53C45.8203 198.622 40 192.802 40 185.622C40 178.442 45.8203 172.622 53 172.622H106C113.18 172.622 119 178.442 119 185.622C119 192.802 113.18 198.622 106 198.622Z" fill="#CCCCCC"/>
<path d="M138.034 187.085L138.005 189.085L240.424 190.564L240.453 188.564L138.034 187.085Z" fill="#CCCCCC"/>
<path d="M244.736 194.142C242.822 194.143 241.074 193.053 240.233 191.334C239.022 188.851 240.052 185.856 242.535 184.645C245.017 183.433 248.012 184.464 249.224 186.946C250.435 189.429 249.405 192.423 246.922 193.635C246.241 193.967 245.494 194.141 244.736 194.142ZM242.031 190.457C242.758 191.945 244.553 192.563 246.042 191.837C247.53 191.111 248.148 189.315 247.422 187.827C246.696 186.338 244.9 185.72 243.412 186.446C242.697 186.795 242.15 187.413 241.891 188.165C241.632 188.917 241.683 189.741 242.031 190.457Z" fill="#CCCCCC"/>
<path d="M514.909 230.269L514.88 232.269L617.299 233.748L617.328 231.748L514.909 230.269Z" fill="#3A404F"/>
<path d="M510.61 236.694C507.844 236.7 505.596 234.463 505.59 231.697C505.583 228.93 507.821 226.683 510.587 226.676C513.353 226.67 515.601 228.907 515.607 231.674C515.612 233.592 514.521 235.344 512.797 236.186C512.116 236.518 511.368 236.692 510.61 236.694ZM510.603 228.69C508.945 228.689 507.601 230.034 507.601 231.692C507.601 233.35 508.945 234.694 510.603 234.694C512.261 234.694 513.606 233.35 513.606 231.692C513.606 231.236 513.502 230.786 513.302 230.377C512.798 229.345 511.751 228.691 510.603 228.69Z" fill="#3A404F"/>
<path d="M696 351.622H643C635.82 351.622 630 345.802 630 338.622C630 331.442 635.82 325.622 643 325.622H696C703.18 325.622 709 331.442 709 338.622C709 345.802 703.18 351.622 696 351.622Z" fill="#0075FF"/>
<path d="M514.909 333.269L514.88 335.269L617.299 336.748L617.328 334.748L514.909 333.269Z" fill="#3A404F"/>
<path d="M510.61 339.693C507.848 339.696 505.606 337.459 505.604 334.697C505.601 331.935 507.838 329.694 510.6 329.691C512.514 329.689 514.261 330.78 515.1 332.5C516.309 334.985 515.275 337.98 512.79 339.189C512.11 339.519 511.365 339.692 510.61 339.693ZM510.603 331.689C508.945 331.689 507.601 333.033 507.6 334.691C507.6 336.35 508.944 337.694 510.602 337.694C512.261 337.694 513.605 336.35 513.605 334.692C513.605 334.236 513.502 333.787 513.302 333.377C512.798 332.345 511.751 331.69 510.603 331.689Z" fill="#3A404F"/>
<path d="M378.97 351.501C381.504 349.467 381.909 345.764 379.875 343.231C379.678 342.985 379.462 342.756 379.228 342.545L388.753 314.813L381.73 310.293L370.658 343.313C368.669 345.877 369.136 349.567 371.699 351.556C373.844 353.22 376.85 353.197 378.97 351.501Z" fill="#FFB6B6"/>
<path d="M387.099 274.984C385.417 282.1 382.906 288.316 383.246 291.302C383.582 294.279 379.944 297.139 381.101 299.492C382.254 301.851 378.702 302.104 379.663 305.9C380.627 309.705 381.253 310.519 380.439 311.145C379.62 311.769 375.29 326.29 375.29 326.29L377.83 327.221L385.24 329.924L402.654 301.282L402.602 266.125L398.278 265.986C397.24 266.376 396.09 266.843 394.943 267.405C391.44 269.096 387.897 271.596 387.099 274.984Z" fill="#0075FF"/>
<path d="M451.224 498.062H460.28L464.588 463.133H451.222L451.224 498.062Z" fill="#FFB6B6"/>
<path d="M463.293 498.878V492.739L460.912 492.884L451.221 493.458L448.978 493.596L447.264 514.157L447.172 515.259H453.602L453.809 514.165L454.742 509.189L457.154 514.165L457.682 515.259H474.729C476.841 515.246 478.547 513.535 478.557 511.424C479.276 508.064 465.099 500.799 463.293 498.878Z" fill="#2E2E2E"/>
<path d="M345.131 488.205L353.008 492.674L373.992 464.42L362.367 457.825L345.131 488.205Z" fill="#FFB6B6"/>
<path d="M355.23 494.867L358.254 489.531L356.126 488.483L347.407 484.204L345.386 483.208L335.458 497.745L333.123 501.159L335.764 502.659L338.711 504.336L342.707 499.62L342.263 506.349L356.187 514.256H356.195L357.09 514.762C358.932 515.802 361.268 515.154 362.311 513.315C364.592 510.743 355.85 497.439 355.23 494.867Z" fill="#2E2E2E"/>
<path d="M406.283 326.602C394.148 334.644 382.135 411.901 385.288 410.639L356.686 463.944L371.305 473.828L424.166 389.247L441.737 426.664L448.994 484.096L467.195 482.796C462.466 418.094 450.657 349.854 440.87 323.458L406.283 326.602Z" fill="#2E2E2E"/>
<path d="M397.07 332.34L396.937 332.837C409.766 339.974 444.881 331.707 444.881 331.707L439.222 313.47L446.862 272.957C446.821 266.417 441.486 261.149 434.946 261.19C434.677 261.192 434.409 261.202 434.141 261.222L424.922 254.393L411.797 254.846L403.019 264.543L397.774 266.417L393.699 267.869C392.875 268.612 391.976 269.467 391.114 270.41L397.56 308.77L400.302 320.241L397.07 332.34Z" fill="#0075FF"/>
<path d="M418.373 252.872C427.673 252.872 435.212 245.332 435.212 236.032C435.212 226.732 427.673 219.193 418.373 219.193C409.072 219.193 401.533 226.732 401.533 236.032C401.533 245.332 409.072 252.872 418.373 252.872Z" fill="#FFB6B6"/>
<path d="M396.231 230.166C396.281 230.185 396.325 230.204 396.375 230.223C396.471 230.265 396.57 230.301 396.671 230.331C397.313 230.566 397.982 230.72 398.663 230.788C398.953 230.82 399.245 230.835 399.537 230.835C399.911 230.836 400.285 230.812 400.656 230.762C401.069 230.711 401.477 230.628 401.877 230.514C402.067 230.463 402.254 230.402 402.437 230.333C404.971 229.432 406.937 227.396 407.746 224.831V224.825C407.789 224.701 407.825 224.575 407.854 224.448C408.041 223.74 408.136 223.011 408.136 222.279V222.266C408.141 220.481 407.584 218.739 406.545 217.288C405.919 216.4 405.195 216.251 405.601 215.235C406.896 211.995 401.597 209.347 398.468 210.771C398.355 210.761 398.242 210.756 398.129 210.758C396.022 210.753 395.241 213.863 393.985 215.615L394.021 215.627C394.864 215.922 395.308 216.844 395.013 217.686C394.848 218.158 394.474 218.526 394.001 218.685C393.164 218.957 392.319 219.198 391.466 219.407C388.651 222.731 391.878 232.458 396.231 230.166Z" fill="#2E2E2E"/>
<path d="M397.781 239.081C398.582 242.683 400.502 245.939 403.266 248.383C406.115 250.685 419.515 256.14 420.646 251.471C419.89 254.732 420.346 255.979 421.563 257.145C421.771 256.863 421.992 256.593 422.219 256.329C423.055 255.366 424.058 254.561 425.18 253.953C425.209 255.924 425.068 257.893 424.757 259.838C425.258 260.301 425.736 260.789 426.187 261.301C428.354 254.842 433.104 247.105 429.665 241.224C428.3 238.89 429.438 238.57 430.647 238.302C432.757 237.835 433.921 229.173 434.423 227.068C435.046 224.428 435.293 221.391 433.657 219.224C432.021 217.057 427.884 216.964 427.047 219.547L425.305 217.178C423.053 212.223 417.077 213.214 411.673 213.855C406.194 214.684 401.477 218.164 399.066 223.155C396.746 228.139 396.29 233.789 397.781 239.081Z" fill="#2E2E2E"/>
<path d="M406.3 216.448C406.534 222.555 403.1 228.213 397.574 230.825C396.476 231.322 395.52 229.694 396.626 229.193C401.566 226.914 404.642 221.879 404.413 216.443C404.35 215.23 406.237 215.238 406.3 216.448Z" fill="#0075FF"/>
<path d="M482.355 225.764C479.225 226.633 477.391 229.875 478.26 233.006C478.344 233.309 478.453 233.605 478.584 233.891L458.889 255.614L463.558 262.539L486.762 236.567C489.601 234.996 490.628 231.422 489.058 228.583C487.743 226.207 484.972 225.042 482.355 225.764Z" fill="#FFB6B6"/>
<path d="M426.369 296.237C426.369 296.237 440.338 298.745 444.691 292.865C449.045 286.985 453.805 282.268 454.671 279.394C455.537 276.52 460.006 275.332 459.874 272.71C459.742 270.088 463.109 271.26 463.722 267.387C464.336 263.515 464.083 262.517 465.081 262.265C466.079 262.012 475.784 250.38 475.784 250.38L468.077 243.114L440.776 262.56L426.369 296.237Z" fill="#0075FF"/>
<path d="M250.438 514.863C250.437 515.518 250.966 516.051 251.621 516.053H541.919C542.576 516.053 543.109 515.52 543.109 514.863C543.109 514.206 542.576 513.673 541.919 513.673H251.629C250.973 513.671 250.44 514.201 250.438 514.856V514.863Z" fill="#CACACA"/>
<path d="M163.586 17.2901C168.256 17.2901 172.042 13.4196 172.042 8.64507C172.042 3.87053 168.256 0 163.586 0C158.915 0 155.129 3.87053 155.129 8.64507C155.129 13.4196 158.915 17.2901 163.586 17.2901Z" fill="#9F9F9F"/>
<path d="M192.799 17.2901C197.47 17.2901 201.256 13.4196 201.256 8.64507C201.256 3.87053 197.47 0 192.799 0C188.129 0 184.343 3.87053 184.343 8.64507C184.343 13.4196 188.129 17.2901 192.799 17.2901Z" fill="#9F9F9F"/>
<path d="M222.013 17.2901C226.684 17.2901 230.47 13.4196 230.47 8.64507C230.47 3.87053 226.684 0 222.013 0C217.343 0 213.557 3.87053 213.557 8.64507C213.557 13.4196 217.343 17.2901 222.013 17.2901Z" fill="#9F9F9F"/>
<path d="M255.324 15.4779C255.065 15.4779 254.805 15.3773 254.609 15.1771L248.903 9.34412C248.523 8.95545 248.523 8.33435 248.903 7.94568L254.609 2.11316C254.997 1.71863 255.63 1.71228 256.024 2.09754C256.419 2.48377 256.425 3.11707 256.039 3.5116L251.017 8.6449L256.039 13.7787C256.425 14.1732 256.419 14.8065 256.024 15.1927C255.829 15.3832 255.577 15.4779 255.324 15.4779Z" fill="#9F9F9F"/>
<path d="M264.913 15.4779C264.661 15.4779 264.408 15.3832 264.214 15.1927C263.819 14.8065 263.812 14.1737 264.198 13.7787L269.22 8.6449L264.198 3.5116C263.812 3.11707 263.819 2.48377 264.214 2.09754C264.608 1.71082 265.242 1.71815 265.628 2.11316L271.334 7.94568C271.714 8.33435 271.714 8.95545 271.334 9.34412L265.628 15.1771C265.432 15.3773 265.173 15.4779 264.913 15.4779Z" fill="#9F9F9F"/>
<path d="M563.423 1.00085H552.813C551.603 1.00085 550.623 1.98083 550.623 3.19085V13.8109C550.623 15.0209 551.603 16.0009 552.813 16.0009H563.423C564.633 16.0009 565.623 15.0209 565.623 13.8109V3.19085C565.623 1.98083 564.633 1.00085 563.423 1.00085Z" fill="#9F9F9F"/>
<path d="M537.423 1.00085H526.813C525.603 1.00085 524.623 1.98083 524.623 3.19085V13.8109C524.623 15.0209 525.603 16.0009 526.813 16.0009H537.423C538.633 16.0009 539.623 15.0209 539.623 13.8109V3.19085C539.623 1.98083 538.633 1.00085 537.423 1.00085Z" fill="#9F9F9F"/>
<path d="M587.923 1.50085H577.313C576.103 1.50085 575.123 2.48083 575.123 3.69085V14.3109C575.123 15.5209 576.103 16.5009 577.313 16.5009H587.923C589.133 16.5009 590.123 15.5209 590.123 14.3109V3.69085C590.123 2.48083 589.133 1.50085 587.923 1.50085Z" fill="#9F9F9F"/>
<path d="M428.001 5.54089H343.191C341.711 5.54089 340.521 6.7409 340.521 8.21093C340.521 9.68096 341.711 10.8809 343.191 10.8809H428.001C429.471 10.8809 430.671 9.6809 430.671 8.21093C430.671 6.74096 429.471 5.54089 428.001 5.54089Z" fill="#9F9F9F"/>
</g>
<defs>
<clipPath id="clip0_87_783">
<rect width="709" height="516.053" fill="white"/>
</clipPath>
</defs>
</svg>
