<svg width="787" height="218" viewBox="0 0 787 218" fill="none" xmlns="http://www.w3.org/2000/svg">
<g clip-path="url(#clip0_37_136)">
<path d="M238.073 218C224.873 218 213.073 214.8 202.673 208.4C192.273 201.8 183.973 192.9 177.773 181.7C171.773 170.5 168.773 157.9 168.773 143.9C168.773 129.9 171.773 117.3 177.773 106.1C183.973 94.9 192.273 86 202.673 79.4C213.073 72.8 224.873 69.5 238.073 69.5C248.673 69.5 258.273 71.8 266.873 76.4C275.473 80.8 282.373 87 287.573 95C292.973 102.8 295.973 111.9 296.573 122.3V165.2C295.973 175.4 293.073 184.5 287.873 192.5C282.673 200.5 275.773 206.8 267.173 211.4C258.573 215.8 248.873 218 238.073 218ZM242.573 192.5C251.573 192.5 259.373 190.4 265.973 186.2C272.773 182 278.073 176.3 281.873 169.1C285.673 161.7 287.573 153.3 287.573 143.9C287.573 134.1 285.573 125.6 281.573 118.4C277.773 111.2 272.473 105.5 265.673 101.3C259.073 97.1 251.273 95 242.273 95C233.273 95 225.373 97.1 218.573 101.3C211.773 105.5 206.373 111.3 202.373 118.7C198.573 125.9 196.673 134.2 196.673 143.6C196.673 153.2 198.573 161.7 202.373 169.1C206.373 176.3 211.773 182 218.573 186.2C225.573 190.4 233.573 192.5 242.573 192.5ZM313.073 215H285.773V176.6L290.873 141.8L285.773 107.3V0.799986H313.073V215ZM418.382 218C404.182 218 391.382 214.8 379.982 208.4C368.582 201.8 359.582 192.9 352.982 181.7C346.382 170.5 343.082 157.8 343.082 143.6C343.082 129.6 346.282 117 352.682 105.8C359.282 94.6 368.082 85.8 379.082 79.4C390.282 72.8 402.782 69.5 416.582 69.5C429.782 69.5 441.382 72.5 451.382 78.5C461.582 84.5 469.482 92.8 475.082 103.4C480.882 114 483.782 126 483.782 139.4C483.782 141.4 483.682 143.6 483.482 146C483.282 148.2 482.882 150.8 482.282 153.8H361.982V131.3H467.882L457.982 140C457.982 130.4 456.282 122.3 452.882 115.7C449.482 108.9 444.682 103.7 438.482 100.1C432.282 96.3 424.782 94.4 415.982 94.4C406.782 94.4 398.682 96.4 391.682 100.4C384.682 104.4 379.282 110 375.482 117.2C371.682 124.4 369.782 132.9 369.782 142.7C369.782 152.7 371.782 161.5 375.782 169.1C379.782 176.5 385.482 182.3 392.882 186.5C400.282 190.5 408.782 192.5 418.382 192.5C426.382 192.5 433.682 191.1 440.282 188.3C447.082 185.5 452.882 181.3 457.682 175.7L475.082 193.4C468.282 201.4 459.882 207.5 449.882 211.7C440.082 215.9 429.582 218 418.382 218ZM513.222 215V0.799986H540.222V215H513.222ZM711.916 218C697.916 218 685.316 214.7 674.116 208.1C662.916 201.5 654.016 192.6 647.416 181.4C640.816 170 637.516 157.3 637.516 143.3C637.516 129.5 640.816 117.1 647.416 106.1C654.016 94.9 662.916 86 674.116 79.4C685.316 72.8 697.916 69.5 711.916 69.5C725.716 69.5 738.216 72.8 749.416 79.4C760.816 85.8 769.816 94.6 776.416 105.8C783.016 117 786.316 129.5 786.316 143.3C786.316 157.3 783.016 170 776.416 181.4C769.816 192.6 760.816 201.5 749.416 208.1C738.216 214.7 725.716 218 711.916 218ZM711.916 191.9C720.916 191.9 728.916 189.8 735.916 185.6C742.916 181.4 748.416 175.7 752.416 168.5C756.416 161.1 758.416 152.7 758.416 143.3C758.416 134.1 756.316 125.9 752.116 118.7C748.116 111.5 742.616 105.9 735.616 101.9C728.816 97.7 720.916 95.6 711.916 95.6C702.916 95.6 694.916 97.7 687.916 101.9C680.916 105.9 675.416 111.5 671.416 118.7C667.416 125.9 665.416 134.1 665.416 143.3C665.416 152.7 667.416 161.1 671.416 168.5C675.416 175.7 680.916 181.4 687.916 185.6C694.916 189.8 702.916 191.9 711.916 191.9Z" fill="#161619"/>
<ellipse cx="593.856" cy="51.8108" rx="17.5174" ry="17.4343" transform="rotate(-22.5 593.856 51.8108)" fill="#FF6600"/>
<path d="M607 215H580V83H607V215Z" fill="#161619"/>
<path d="M33.0352 214.861H18.5576C8.31669 214.861 0.0147843 206.559 0.0147734 196.318L0.0146311 62.1249C0.0146311 62.1249 -0.603488 44.2002 6.19555 32.4564C12.9946 20.7126 19.7936 13.4052 34.0097 6.49646C48.2259 -0.41228 64.2965 -0.30258 77.8946 4.02408C91.4927 8.35074 103.236 18.8583 103.236 18.8583L81.6028 40.4916C81.6028 40.4916 75.0013 35.8898 70.4775 34.3107C65.9537 32.7316 58.1156 31.2202 50.6985 33.6926C43.2813 36.165 39.8696 40.5363 36.4821 46.0545C33.0946 51.5727 33.0198 60.8887 33.0198 60.8887L33.0352 83.8246H104.234H119.457C129.698 83.8246 138 92.1265 138 102.367V114.243L137.985 214.861H104.219L104.233 120.425C104.234 117.011 101.466 114.243 98.0523 114.243H39.23C35.8169 114.243 33.0498 117.009 33.049 120.422L33.0366 177.155C33.0358 180.57 35.8034 183.338 39.2175 183.338H77.8946V214.861H33.0352Z" fill="#0075FF"/>
<ellipse cx="115.3" cy="52.1209" rx="17.2841" ry="17.2021" transform="rotate(-22.5 115.3 52.1209)" fill="#FF6600"/>
</g>
<defs>
<clipPath id="clip0_37_136">
<rect width="787" height="218" fill="white"/>
</clipPath>
</defs>
</svg>
