<svg width="748" height="741" viewBox="0 0 748 741" fill="none" xmlns="http://www.w3.org/2000/svg">
<path d="M334.333 584.111L78.3223 674.625C71.9929 676.854 65.0379 676.482 58.9828 673.589C52.9276 670.697 48.2667 665.522 46.0223 659.198L2.04029 534.809C-0.188561 528.48 0.184 521.524 3.07623 515.469C5.96847 509.414 11.1442 504.753 17.4683 502.509L273.479 411.994C279.809 409.765 286.764 410.138 292.819 413.03C298.874 415.922 303.535 421.098 305.779 427.422L349.758 551.811C351.987 558.14 351.615 565.095 348.723 571.151C345.831 577.206 340.655 581.867 334.331 584.111H334.333Z" fill="#0077FF"/>
<path opacity="0.096" d="M349.761 551.808L349.994 552.466C352.13 558.511 351.777 565.157 349.013 570.942C346.249 576.727 341.301 581.177 335.256 583.313L77.9637 674.281C71.92 676.417 65.2752 676.065 59.4908 673.303C53.7064 670.54 49.2562 665.593 47.1187 659.55L46.8857 658.892L349.761 551.808Z" fill="#F2F2F2"/>
<path d="M62.3465 531.387C45.3765 542.553 23.6275 534.15 16.0215 521.909L17.2345 521.22C31.6815 512.216 53.1355 517.233 62.3465 531.387Z" fill="#F2F2F2"/>
<path d="M275.001 563.067C270.847 564.536 267.108 564.467 263.884 562.867C256.598 559.247 253.184 548.514 250.433 539.889C249.633 537.38 248.879 535.01 248.11 533.073L248.099 533.043C246.762 529.2 246.995 524.985 248.748 521.313C250.5 517.641 253.631 514.809 257.459 513.432L291.894 501.257C296.042 499.79 299.778 499.857 302.994 501.457C310.278 505.072 313.699 515.802 316.449 524.423C317.249 526.937 318.008 529.312 318.779 531.252C320.124 535.098 319.896 539.321 318.144 542.999C316.392 546.678 313.258 549.516 309.423 550.896L275.001 563.067ZM249.54 532.522C250.326 534.506 251.087 536.895 251.893 539.422C254.552 547.771 257.862 558.161 264.565 561.492C267.442 562.921 270.688 562.963 274.488 561.62L308.913 549.449C312.362 548.209 315.182 545.659 316.761 542.352C318.34 539.045 318.55 535.249 317.346 531.788C316.566 529.828 315.801 527.429 314.991 524.888C312.33 516.543 309.017 506.156 302.316 502.83C299.442 501.403 296.199 501.362 292.405 502.703L257.972 514.877C254.528 516.117 251.711 518.664 250.132 521.967C248.554 525.27 248.342 529.062 249.541 532.521L249.54 532.522Z" fill="#F2F2F2"/>
<path d="M55.209 535.409C49.1579 537.507 42.6396 537.865 36.395 536.443C27.275 534.443 18.995 528.996 14.795 522.234L14.374 521.556L16.267 520.48C30.931 511.346 52.921 516.298 62.412 530.88L62.828 531.519L62.191 531.939C60.0128 533.374 57.6683 534.539 55.209 535.409ZM16.533 522.094C20.646 528.206 28.3 533.094 36.724 534.944C44.9126 536.856 53.5248 535.466 60.696 531.075C51.412 517.645 30.842 513.19 17.066 521.789L16.533 522.094Z" fill="#3F3D56"/>
<path d="M64.2032 624.686C62.0533 625.537 59.7123 625.787 57.4313 625.408C55.1504 625.029 53.0156 624.036 51.2562 622.536C49.1968 620.736 47.6356 618.436 46.7231 615.858C45.8106 613.28 45.5774 610.51 46.0462 607.815C46.4815 605.496 47.5503 603.344 49.1341 601.595C50.7179 599.847 52.7548 598.571 55.0192 597.909L100.901 581.687C103.079 580.784 105.464 580.5 107.794 580.866C110.123 581.232 112.306 582.235 114.101 583.763C116.159 585.564 117.718 587.864 118.629 590.443C119.54 593.021 119.771 595.79 119.301 598.484C118.395 603.219 115.201 606.707 110.326 608.376L64.4432 624.598L64.2032 624.686ZM55.3032 599.434C53.3453 600.038 51.5892 601.165 50.2234 602.692C48.8576 604.219 47.9338 606.09 47.5512 608.103C47.1289 610.531 47.3389 613.026 48.1611 615.349C48.9832 617.672 50.3898 619.744 52.2452 621.365C53.8356 622.713 55.7682 623.593 57.8286 623.91C59.889 624.226 61.9968 623.966 63.9182 623.157L109.818 606.927C111.823 606.349 113.629 605.228 115.035 603.687C116.442 602.146 117.394 600.246 117.787 598.197C118.21 595.77 118.001 593.275 117.18 590.952C116.359 588.629 114.954 586.557 113.099 584.935C111.506 583.589 109.572 582.709 107.511 582.392C105.45 582.074 103.341 582.331 101.416 583.135L55.5082 599.366L55.2972 599.439L55.3032 599.434Z" fill="#F2F2F2"/>
<path d="M275.307 526.469L260.843 531.583C259.884 531.922 258.83 531.866 257.912 531.428C256.994 530.99 256.288 530.204 255.949 529.245C255.61 528.286 255.666 527.232 256.104 526.314C256.542 525.396 257.327 524.69 258.286 524.351L272.75 519.237C273.709 518.898 274.764 518.954 275.682 519.392C276.6 519.83 277.306 520.615 277.645 521.574C277.984 522.533 277.928 523.588 277.49 524.506C277.051 525.424 276.266 526.13 275.307 526.469Z" fill="#D6D6E3"/>
<path d="M279.399 538.04L264.935 543.154C263.976 543.493 262.922 543.437 262.004 542.999C261.086 542.561 260.38 541.776 260.041 540.817C259.702 539.857 259.757 538.803 260.196 537.885C260.634 536.967 261.419 536.261 262.378 535.922L276.842 530.808C277.317 530.64 277.82 530.567 278.323 530.594C278.826 530.621 279.319 530.746 279.773 530.963C280.228 531.18 280.635 531.485 280.972 531.859C281.309 532.233 281.569 532.671 281.737 533.145C281.905 533.62 281.977 534.124 281.951 534.627C281.924 535.13 281.799 535.622 281.582 536.077C281.365 536.531 281.06 536.939 280.686 537.275C280.311 537.612 279.874 537.872 279.399 538.04Z" fill="#D6D6E3"/>
<path d="M283.49 549.611L269.026 554.725C268.067 555.064 267.012 555.008 266.095 554.57C265.177 554.132 264.471 553.347 264.131 552.388C263.792 551.429 263.848 550.374 264.287 549.456C264.725 548.538 265.51 547.832 266.469 547.493L280.933 542.379C281.408 542.211 281.911 542.138 282.414 542.165C282.917 542.192 283.41 542.317 283.864 542.534C284.319 542.751 284.726 543.056 285.063 543.43C285.4 543.805 285.66 544.242 285.827 544.717C285.995 545.191 286.068 545.695 286.042 546.198C286.015 546.701 285.889 547.193 285.672 547.648C285.455 548.102 285.151 548.51 284.776 548.847C284.402 549.183 283.965 549.443 283.49 549.611Z" fill="#D6D6E3"/>
<path d="M300.619 517.52L286.155 522.634C285.196 522.973 284.141 522.917 283.224 522.479C282.306 522.041 281.599 521.255 281.26 520.296C280.921 519.337 280.977 518.283 281.415 517.365C281.854 516.447 282.639 515.741 283.598 515.402L298.062 510.288C299.021 509.949 300.075 510.005 300.993 510.443C301.911 510.881 302.617 511.666 302.956 512.625C303.295 513.584 303.24 514.639 302.801 515.557C302.363 516.475 301.578 517.181 300.619 517.52Z" fill="#D6D6E3"/>
<path d="M304.71 529.091L290.246 534.205C289.287 534.544 288.232 534.488 287.314 534.05C286.396 533.612 285.69 532.827 285.351 531.868C285.012 530.908 285.068 529.854 285.506 528.936C285.945 528.018 286.73 527.312 287.689 526.973L302.153 521.859C302.628 521.691 303.131 521.618 303.634 521.645C304.137 521.672 304.63 521.797 305.084 522.014C305.539 522.231 305.946 522.536 306.283 522.91C306.62 523.285 306.879 523.722 307.047 524.197C307.215 524.671 307.288 525.175 307.261 525.678C307.235 526.181 307.109 526.673 306.892 527.128C306.675 527.582 306.371 527.99 305.996 528.326C305.622 528.663 305.185 528.923 304.71 529.091Z" fill="#D6D6E3"/>
<path d="M308.8 540.661L294.337 545.775C293.377 546.114 292.323 546.058 291.405 545.62C290.487 545.182 289.781 544.397 289.442 543.438C289.103 542.479 289.159 541.424 289.597 540.506C290.035 539.588 290.82 538.882 291.78 538.543L306.243 533.429C306.718 533.261 307.222 533.188 307.725 533.215C308.228 533.242 308.72 533.367 309.175 533.584C309.629 533.801 310.037 534.106 310.373 534.48C310.71 534.855 310.97 535.292 311.138 535.767C311.306 536.241 311.379 536.745 311.352 537.248C311.325 537.751 311.2 538.243 310.983 538.698C310.766 539.152 310.461 539.56 310.087 539.897C309.713 540.233 309.275 540.493 308.8 540.661Z" fill="#D6D6E3"/>
<path d="M315.419 454.605L12.4844 561.58L12.9952 563.027L315.93 456.052L315.419 454.605Z" fill="#3F3D56"/>
<path d="M334.333 584.111L78.3223 674.625C71.9929 676.854 65.0379 676.482 58.9828 673.589C52.9276 670.697 48.2667 665.522 46.0223 659.198L2.04029 534.809C-0.188561 528.48 0.184 521.524 3.07623 515.469C5.96847 509.414 11.1442 504.753 17.4683 502.509L273.479 411.994C279.809 409.765 286.764 410.138 292.819 413.03C298.874 415.922 303.535 421.098 305.779 427.422L349.758 551.811C351.987 558.14 351.615 565.095 348.723 571.151C345.831 577.206 340.655 581.867 334.331 584.111H334.333ZM17.9793 503.952C12.0377 506.06 7.17486 510.439 4.45783 516.128C1.74079 521.817 1.3914 528.352 3.4863 534.298L47.4653 658.687C49.5735 664.628 53.9522 669.491 59.641 672.208C65.3298 674.925 71.8641 675.275 77.8103 673.18L333.822 582.664C339.764 580.556 344.626 576.177 347.343 570.488C350.06 564.799 350.41 558.265 348.315 552.319L304.335 427.934C302.229 421.991 297.85 417.127 292.161 414.409C286.472 411.69 279.937 411.34 273.99 413.434L17.9793 503.952Z" fill="#3F3D56"/>
<path d="M747.626 176.007H743.553V64.522C743.552 47.4096 736.754 30.9982 724.654 18.898C712.554 6.7978 696.142 5.69477e-09 679.03 7.75002e-09H442.83C434.356 -0.000131315 425.966 1.66868 418.138 4.91116C410.31 8.15363 403.197 12.9063 397.205 18.8977C391.214 24.8891 386.461 32.002 383.218 39.8303C379.976 47.6585 378.307 56.0488 378.307 64.522V676.138C378.307 693.25 385.105 709.662 397.205 721.762C409.306 733.862 425.717 740.66 442.83 740.66H679.03C696.142 740.66 712.554 733.862 724.654 721.762C736.755 709.661 743.553 693.25 743.553 676.137V255.365H747.624L747.626 176.007Z" fill="#3A404F"/>
<path d="M680.612 16.7839H649.781C651.199 20.2604 651.74 24.0322 651.357 27.7671C650.974 31.5019 649.678 35.0852 647.583 38.2012C645.489 41.3171 642.66 43.8701 639.346 45.6352C636.033 47.4003 632.336 48.3233 628.581 48.3229H493.265C489.511 48.3233 485.814 47.4003 482.5 45.6352C479.186 43.8701 476.358 41.3171 474.263 38.2012C472.169 35.0852 470.873 31.5019 470.489 27.7671C470.106 24.0322 470.647 20.2604 472.065 16.7839H443.265C430.485 16.7839 418.229 21.8608 409.192 30.8976C400.155 39.9344 395.078 52.191 395.078 64.9709V675.688C395.078 682.016 396.325 688.282 398.746 694.128C401.168 699.975 404.717 705.287 409.192 709.761C413.666 714.236 418.978 717.785 424.825 720.207C430.671 722.629 436.937 723.875 443.265 723.875H680.602C693.382 723.875 705.638 718.798 714.675 709.762C723.712 700.725 728.789 688.469 728.789 675.689V64.9709C728.789 52.1929 723.714 39.938 714.679 30.9015C705.645 21.865 693.391 16.7869 680.613 16.7839H680.612Z" fill="white"/>
<path d="M692.045 268.992H433.895C431.482 268.989 429.169 268.029 427.463 266.323C425.758 264.618 424.798 262.305 424.795 259.892V232.114C424.798 229.701 425.758 227.389 427.463 225.683C429.169 223.977 431.482 223.017 433.895 223.014H692.045C694.457 223.017 696.77 223.977 698.476 225.683C700.182 227.389 701.142 229.701 701.145 232.114V259.893C701.142 262.306 700.182 264.619 698.476 266.324C696.77 268.03 694.457 268.99 692.045 268.993V268.992ZM433.895 223.966C431.736 223.968 429.667 224.827 428.14 226.353C426.614 227.88 425.755 229.949 425.753 232.108V259.887C425.755 262.046 426.614 264.115 428.14 265.642C429.667 267.168 431.736 268.027 433.895 268.029H692.045C694.204 268.027 696.273 267.168 697.8 265.642C699.326 264.115 700.185 262.046 700.187 259.887V232.114C700.185 229.955 699.327 227.885 697.8 226.358C696.274 224.831 694.204 223.972 692.045 223.97L433.895 223.966Z" fill="#CCCCCC"/>
<path d="M468.777 261.842C465.645 261.842 462.583 260.913 459.978 259.173C457.373 257.432 455.343 254.959 454.144 252.064C452.945 249.17 452.632 245.985 453.243 242.913C453.854 239.841 455.363 237.018 457.578 234.803C459.793 232.588 462.615 231.08 465.687 230.468C468.76 229.857 471.945 230.171 474.839 231.37C477.733 232.569 480.207 234.599 481.947 237.203C483.688 239.808 484.616 242.87 484.616 246.003C484.616 250.204 482.948 254.233 479.977 257.203C477.007 260.173 472.978 261.842 468.777 261.842Z" fill="#0077FF"/>
<path d="M668.661 258.935H499.595C499.087 258.943 498.582 258.85 498.11 258.661C497.638 258.472 497.208 258.192 496.845 257.835C496.483 257.478 496.195 257.053 495.999 256.584C495.802 256.115 495.701 255.612 495.701 255.103C495.701 254.595 495.802 254.092 495.999 253.623C496.195 253.154 496.483 252.729 496.845 252.372C497.208 252.015 497.638 251.735 498.11 251.546C498.582 251.357 499.087 251.264 499.595 251.272H668.661C669.169 251.264 669.674 251.357 670.146 251.546C670.618 251.735 671.048 252.015 671.411 252.372C671.773 252.729 672.061 253.154 672.257 253.623C672.454 254.092 672.555 254.595 672.555 255.103C672.555 255.612 672.454 256.115 672.257 256.584C672.061 257.053 671.773 257.478 671.411 257.835C671.048 258.192 670.618 258.472 670.146 258.661C669.674 258.85 669.169 258.943 668.661 258.935Z" fill="#0077FF"/>
<path d="M613.579 242.651H499.59C499.082 242.659 498.577 242.566 498.105 242.377C497.633 242.188 497.203 241.908 496.841 241.551C496.478 241.194 496.19 240.769 495.994 240.3C495.797 239.831 495.696 239.328 495.696 238.82C495.696 238.311 495.797 237.808 495.994 237.339C496.19 236.87 496.478 236.445 496.841 236.088C497.203 235.732 497.633 235.451 498.105 235.262C498.577 235.073 499.082 234.98 499.59 234.988H613.579C614.088 234.98 614.592 235.073 615.065 235.262C615.537 235.451 615.966 235.732 616.329 236.088C616.691 236.445 616.979 236.87 617.175 237.339C617.372 237.808 617.473 238.311 617.473 238.82C617.473 239.328 617.372 239.831 617.175 240.3C616.979 240.769 616.691 241.194 616.329 241.551C615.966 241.908 615.537 242.188 615.065 242.377C614.592 242.566 614.088 242.659 613.579 242.651Z" fill="#0077FF"/>
<path d="M692.045 340.167H433.895C431.482 340.164 429.169 339.204 427.463 337.498C425.758 335.792 424.798 333.48 424.795 331.067V303.289C424.798 300.876 425.758 298.563 427.463 296.858C429.169 295.152 431.482 294.192 433.895 294.189H692.045C694.457 294.192 696.77 295.152 698.476 296.858C700.182 298.563 701.142 300.876 701.145 303.289V331.068C701.142 333.481 700.182 335.793 698.476 337.499C696.77 339.205 694.457 340.165 692.045 340.168V340.167ZM433.895 295.141C431.736 295.143 429.667 296.002 428.14 297.528C426.614 299.055 425.755 301.124 425.753 303.283V331.062C425.755 333.221 426.614 335.29 428.14 336.817C429.667 338.343 431.736 339.202 433.895 339.204H692.045C694.204 339.202 696.273 338.343 697.8 336.817C699.326 335.29 700.185 333.221 700.187 331.062V303.289C700.185 301.13 699.327 299.06 697.8 297.533C696.274 296.006 694.204 295.147 692.045 295.145L433.895 295.141Z" fill="#CCCCCC"/>
<path d="M468.777 333.017C465.645 333.017 462.583 332.088 459.978 330.348C457.373 328.607 455.343 326.134 454.144 323.239C452.945 320.345 452.632 317.16 453.243 314.088C453.854 311.015 455.363 308.193 457.578 305.978C459.793 303.763 462.615 302.254 465.687 301.643C468.76 301.032 471.945 301.346 474.839 302.545C477.733 303.743 480.207 305.774 481.947 308.378C483.688 310.983 484.616 314.045 484.616 317.178C484.616 321.379 482.948 325.407 479.977 328.378C477.007 331.348 472.978 333.017 468.777 333.017Z" fill="#DDDDDD"/>
<path d="M668.661 330.11H499.595C499.087 330.118 498.582 330.025 498.11 329.836C497.638 329.647 497.208 329.366 496.845 329.01C496.483 328.653 496.195 328.228 495.999 327.759C495.802 327.29 495.701 326.787 495.701 326.278C495.701 325.77 495.802 325.267 495.999 324.798C496.195 324.329 496.483 323.904 496.845 323.547C497.208 323.19 497.638 322.909 498.11 322.721C498.582 322.532 499.087 322.439 499.595 322.447H668.661C669.169 322.439 669.674 322.532 670.146 322.721C670.618 322.909 671.048 323.19 671.411 323.547C671.773 323.904 672.061 324.329 672.257 324.798C672.454 325.267 672.555 325.77 672.555 326.278C672.555 326.787 672.454 327.29 672.257 327.759C672.061 328.228 671.773 328.653 671.411 329.01C671.048 329.366 670.618 329.647 670.146 329.836C669.674 330.025 669.169 330.118 668.661 330.11Z" fill="#DDDDDD"/>
<path d="M613.579 313.826H499.59C499.082 313.834 498.577 313.741 498.105 313.552C497.633 313.363 497.203 313.083 496.841 312.726C496.478 312.369 496.19 311.944 495.994 311.475C495.797 311.006 495.696 310.503 495.696 309.994C495.696 309.486 495.797 308.983 495.994 308.514C496.19 308.045 496.478 307.62 496.841 307.263C497.203 306.906 497.633 306.626 498.105 306.437C498.577 306.248 499.082 306.155 499.59 306.163H613.579C614.088 306.155 614.592 306.248 615.065 306.437C615.537 306.626 615.966 306.906 616.329 307.263C616.691 307.62 616.979 308.045 617.175 308.514C617.372 308.983 617.473 309.486 617.473 309.994C617.473 310.503 617.372 311.006 617.175 311.475C616.979 311.944 616.691 312.369 616.329 312.726C615.966 313.083 615.537 313.363 615.065 313.552C614.592 313.741 614.088 313.834 613.579 313.826Z" fill="#DDDDDD"/>
<path d="M692.045 410.314H433.895C431.482 410.311 429.169 409.351 427.463 407.645C425.758 405.939 424.798 403.627 424.795 401.214V373.436C424.798 371.023 425.758 368.71 427.463 367.004C429.169 365.299 431.482 364.339 433.895 364.336H692.045C694.457 364.339 696.77 365.299 698.476 367.004C700.182 368.71 701.142 371.023 701.145 373.436V401.215C701.142 403.628 700.182 405.94 698.476 407.646C696.77 409.352 694.457 410.312 692.045 410.315V410.314ZM433.895 365.288C431.736 365.29 429.667 366.149 428.14 367.675C426.614 369.202 425.755 371.271 425.753 373.43V401.209C425.755 403.368 426.614 405.437 428.14 406.964C429.667 408.49 431.736 409.349 433.895 409.351H692.045C694.204 409.349 696.273 408.49 697.8 406.964C699.326 405.437 700.185 403.368 700.187 401.209V373.436C700.185 371.277 699.327 369.207 697.8 367.68C696.274 366.153 694.204 365.294 692.045 365.292L433.895 365.288Z" fill="#CCCCCC"/>
<path d="M468.777 403.164C465.645 403.164 462.583 402.235 459.978 400.495C457.373 398.754 455.343 396.28 454.144 393.386C452.945 390.492 452.632 387.307 453.243 384.235C453.854 381.162 455.363 378.34 457.578 376.125C459.793 373.91 462.615 372.401 465.687 371.79C468.76 371.179 471.945 371.493 474.839 372.692C477.733 373.89 480.207 375.921 481.947 378.525C483.688 381.13 484.616 384.192 484.616 387.325C484.616 391.526 482.948 395.554 479.977 398.525C477.007 401.495 472.978 403.164 468.777 403.164Z" fill="#DDDDDD"/>
<path d="M668.661 400.257H499.595C499.087 400.265 498.582 400.172 498.11 399.983C497.638 399.794 497.208 399.513 496.845 399.157C496.483 398.8 496.195 398.375 495.999 397.906C495.802 397.437 495.701 396.934 495.701 396.425C495.701 395.917 495.802 395.414 495.999 394.945C496.195 394.476 496.483 394.051 496.845 393.694C497.208 393.337 497.638 393.056 498.11 392.868C498.582 392.679 499.087 392.586 499.595 392.594H668.661C669.169 392.586 669.674 392.679 670.146 392.868C670.618 393.056 671.048 393.337 671.411 393.694C671.773 394.051 672.061 394.476 672.257 394.945C672.454 395.414 672.555 395.917 672.555 396.425C672.555 396.934 672.454 397.437 672.257 397.906C672.061 398.375 671.773 398.8 671.411 399.157C671.048 399.513 670.618 399.794 670.146 399.983C669.674 400.172 669.169 400.265 668.661 400.257Z" fill="#DDDDDD"/>
<path d="M613.579 383.973H499.59C499.082 383.981 498.577 383.888 498.105 383.699C497.633 383.51 497.203 383.229 496.841 382.873C496.478 382.516 496.19 382.091 495.994 381.622C495.797 381.153 495.696 380.65 495.696 380.141C495.696 379.633 495.797 379.13 495.994 378.661C496.19 378.192 496.478 377.767 496.841 377.41C497.203 377.053 497.633 376.772 498.105 376.584C498.577 376.395 499.082 376.302 499.59 376.31H613.579C614.088 376.302 614.592 376.395 615.065 376.584C615.537 376.772 615.966 377.053 616.329 377.41C616.691 377.767 616.979 378.192 617.175 378.661C617.372 379.13 617.473 379.633 617.473 380.141C617.473 380.65 617.372 381.153 617.175 381.622C616.979 382.091 616.691 382.516 616.329 382.873C615.966 383.229 615.537 383.51 615.065 383.699C614.592 383.888 614.088 383.981 613.579 383.973Z" fill="#DDDDDD"/>
<path d="M692.045 481.49H433.895C431.482 481.487 429.169 480.527 427.463 478.821C425.758 477.115 424.798 474.803 424.795 472.39V444.612C424.798 442.199 425.758 439.886 427.463 438.181C429.169 436.475 431.482 435.515 433.895 435.512H692.045C694.457 435.515 696.77 436.475 698.476 438.181C700.182 439.886 701.142 442.199 701.145 444.612V472.391C701.142 474.804 700.182 477.116 698.476 478.822C696.77 480.528 694.457 481.488 692.045 481.491V481.49ZM433.895 436.464C431.736 436.466 429.667 437.325 428.14 438.851C426.614 440.378 425.755 442.447 425.753 444.606V472.385C425.755 474.544 426.614 476.613 428.14 478.14C429.667 479.666 431.736 480.525 433.895 480.527H692.045C694.204 480.525 696.273 479.666 697.8 478.14C699.326 476.613 700.185 474.544 700.187 472.385V444.612C700.185 442.453 699.327 440.383 697.8 438.856C696.274 437.329 694.204 436.47 692.045 436.468L433.895 436.464Z" fill="#CCCCCC"/>
<path d="M468.777 474.34C465.645 474.34 462.583 473.411 459.978 471.671C457.373 469.93 455.343 467.457 454.144 464.562C452.945 461.668 452.632 458.483 453.243 455.411C453.854 452.338 455.363 449.516 457.578 447.301C459.793 445.086 462.615 443.577 465.687 442.966C468.76 442.355 471.945 442.669 474.839 443.868C477.733 445.066 480.207 447.097 481.947 449.701C483.688 452.306 484.616 455.368 484.616 458.501C484.616 462.702 482.948 466.73 479.977 469.701C477.007 472.671 472.978 474.34 468.777 474.34Z" fill="#DDDDDD"/>
<path d="M668.661 471.433H499.595C499.087 471.441 498.582 471.348 498.11 471.159C497.638 470.97 497.208 470.689 496.845 470.333C496.483 469.976 496.195 469.551 495.999 469.082C495.802 468.613 495.701 468.11 495.701 467.601C495.701 467.093 495.802 466.59 495.999 466.121C496.195 465.652 496.483 465.227 496.845 464.87C497.208 464.513 497.638 464.232 498.11 464.044C498.582 463.855 499.087 463.762 499.595 463.77H668.661C669.169 463.762 669.674 463.855 670.146 464.044C670.618 464.232 671.048 464.513 671.411 464.87C671.773 465.227 672.061 465.652 672.257 466.121C672.454 466.59 672.555 467.093 672.555 467.601C672.555 468.11 672.454 468.613 672.257 469.082C672.061 469.551 671.773 469.976 671.411 470.333C671.048 470.689 670.618 470.97 670.146 471.159C669.674 471.348 669.169 471.441 668.661 471.433Z" fill="#DDDDDD"/>
<path d="M613.579 455.149H499.59C499.082 455.157 498.577 455.064 498.105 454.875C497.633 454.686 497.203 454.406 496.841 454.049C496.478 453.692 496.19 453.267 495.994 452.798C495.797 452.329 495.696 451.826 495.696 451.317C495.696 450.809 495.797 450.306 495.994 449.837C496.19 449.368 496.478 448.943 496.841 448.586C497.203 448.229 497.633 447.949 498.105 447.76C498.577 447.571 499.082 447.478 499.59 447.486H613.579C614.088 447.478 614.592 447.571 615.065 447.76C615.537 447.949 615.966 448.229 616.329 448.586C616.691 448.943 616.979 449.368 617.175 449.837C617.372 450.306 617.473 450.809 617.473 451.317C617.473 451.826 617.372 452.329 617.175 452.798C616.979 453.267 616.691 453.692 616.329 454.049C615.966 454.406 615.537 454.686 615.065 454.875C614.592 455.064 614.088 455.157 613.579 455.149Z" fill="#DDDDDD"/>
<path d="M691.014 551.636H432.864C430.451 551.633 428.138 550.673 426.432 548.967C424.726 547.261 423.767 544.949 423.764 542.536V514.758C423.767 512.345 424.726 510.032 426.432 508.327C428.138 506.621 430.451 505.661 432.864 505.658H691.014C693.426 505.661 695.739 506.621 697.445 508.327C699.151 510.032 700.111 512.345 700.114 514.758V542.537C700.111 544.95 699.151 547.262 697.445 548.968C695.739 550.674 693.426 551.634 691.014 551.637V551.636ZM432.864 506.61C430.705 506.612 428.635 507.471 427.109 508.997C425.583 510.524 424.724 512.593 424.722 514.752V542.531C424.724 544.69 425.583 546.759 427.109 548.286C428.635 549.812 430.705 550.671 432.864 550.673H691.014C693.172 550.671 695.242 549.812 696.768 548.286C698.295 546.759 699.153 544.69 699.156 542.531V514.758C699.154 512.599 698.295 510.529 696.769 509.002C695.243 507.475 693.173 506.616 691.014 506.614L432.864 506.61Z" fill="#CCCCCC"/>
<path d="M467.746 544.486C464.614 544.486 461.551 543.557 458.947 541.817C456.342 540.076 454.312 537.603 453.113 534.708C451.914 531.814 451.6 528.629 452.212 525.557C452.823 522.484 454.331 519.662 456.546 517.447C458.762 515.232 461.584 513.723 464.656 513.112C467.729 512.501 470.913 512.815 473.808 514.014C476.702 515.212 479.175 517.243 480.916 519.847C482.656 522.452 483.585 525.514 483.585 528.647C483.585 532.848 481.916 536.876 478.946 539.847C475.976 542.817 471.947 544.486 467.746 544.486Z" fill="#DDDDDD"/>
<path d="M667.63 541.579H498.564C498.055 541.587 497.551 541.494 497.078 541.305C496.606 541.116 496.177 540.835 495.814 540.479C495.452 540.122 495.164 539.697 494.968 539.228C494.771 538.759 494.67 538.256 494.67 537.747C494.67 537.239 494.771 536.736 494.968 536.267C495.164 535.798 495.452 535.373 495.814 535.016C496.177 534.659 496.606 534.378 497.078 534.19C497.551 534.001 498.055 533.908 498.564 533.916H667.63C668.138 533.908 668.643 534.001 669.115 534.19C669.587 534.378 670.017 534.659 670.379 535.016C670.742 535.373 671.03 535.798 671.226 536.267C671.423 536.736 671.524 537.239 671.524 537.747C671.524 538.256 671.423 538.759 671.226 539.228C671.03 539.697 670.742 540.122 670.379 540.479C670.017 540.835 669.587 541.116 669.115 541.305C668.643 541.494 668.138 541.587 667.63 541.579Z" fill="#DDDDDD"/>
<path d="M612.548 525.295H498.559C498.051 525.303 497.546 525.21 497.074 525.021C496.602 524.832 496.172 524.551 495.809 524.195C495.447 523.838 495.159 523.413 494.963 522.944C494.766 522.475 494.665 521.972 494.665 521.463C494.665 520.955 494.766 520.452 494.963 519.983C495.159 519.514 495.447 519.089 495.809 518.732C496.172 518.375 496.602 518.095 497.074 517.906C497.546 517.717 498.051 517.624 498.559 517.632H612.548C613.056 517.624 613.561 517.717 614.033 517.906C614.505 518.095 614.935 518.375 615.298 518.732C615.66 519.089 615.948 519.514 616.144 519.983C616.341 520.452 616.442 520.955 616.442 521.463C616.442 521.972 616.341 522.475 616.144 522.944C615.948 523.413 615.66 523.838 615.298 524.195C614.935 524.551 614.505 524.832 614.033 525.021C613.561 525.21 613.056 525.303 612.548 525.295Z" fill="#DDDDDD"/>
<path d="M562.968 196.376C597.151 196.376 624.861 168.666 624.861 134.483C624.861 100.3 597.151 72.59 562.968 72.59C528.786 72.59 501.075 100.3 501.075 134.483C501.075 168.666 528.786 196.376 562.968 196.376Z" fill="#0077FF"/>
<path d="M644.44 606.926H479.434C479.287 606.926 479.145 606.867 479.04 606.763C478.936 606.658 478.877 606.516 478.877 606.369C478.877 606.221 478.936 606.079 479.04 605.974C479.145 605.87 479.287 605.811 479.434 605.811H644.44C644.588 605.811 644.73 605.87 644.835 605.974C644.939 606.079 644.998 606.221 644.998 606.369C644.998 606.516 644.939 606.658 644.835 606.763C644.73 606.867 644.588 606.926 644.44 606.926Z" fill="#CCCCCC"/>
<path d="M644.44 625.881H479.434C479.287 625.881 479.145 625.822 479.04 625.718C478.936 625.613 478.877 625.471 478.877 625.323C478.877 625.176 478.936 625.034 479.04 624.929C479.145 624.825 479.287 624.766 479.434 624.766H644.44C644.588 624.766 644.73 624.825 644.835 624.929C644.939 625.034 644.998 625.176 644.998 625.323C644.998 625.471 644.939 625.613 644.835 625.718C644.73 625.822 644.588 625.881 644.44 625.881Z" fill="#CCCCCC"/>
<path d="M644.44 644.836H479.434C479.287 644.836 479.145 644.777 479.04 644.673C478.936 644.568 478.877 644.426 478.877 644.278C478.877 644.131 478.936 643.989 479.04 643.884C479.145 643.78 479.287 643.721 479.434 643.721H644.44C644.588 643.721 644.73 643.78 644.835 643.884C644.939 643.989 644.998 644.131 644.998 644.278C644.998 644.426 644.939 644.568 644.835 644.673C644.73 644.777 644.588 644.836 644.44 644.836Z" fill="#CCCCCC"/>
<path d="M644.44 663.787H479.434C479.287 663.787 479.145 663.728 479.04 663.624C478.936 663.519 478.877 663.377 478.877 663.229C478.877 663.082 478.936 662.94 479.04 662.835C479.145 662.731 479.287 662.672 479.434 662.672H644.44C644.588 662.672 644.73 662.731 644.835 662.835C644.939 662.94 644.998 663.082 644.998 663.229C644.998 663.377 644.939 663.519 644.835 663.624C644.73 663.728 644.588 663.787 644.44 663.787Z" fill="#CCCCCC"/>
<path d="M536.942 682.739H520.778C520.039 682.738 519.331 682.444 518.808 681.922C518.286 681.399 517.992 680.691 517.991 679.952V645.952C517.991 645.212 518.284 644.502 518.807 643.979C519.329 643.455 520.038 643.161 520.778 643.16H536.944C537.683 643.161 538.392 643.455 538.914 643.977C539.437 644.5 539.73 645.208 539.731 645.947V679.947C539.731 680.313 539.66 680.676 539.52 681.015C539.379 681.354 539.174 681.661 538.915 681.921C538.656 682.18 538.349 682.386 538.01 682.526C537.672 682.666 537.309 682.739 536.942 682.739Z" fill="#DDDDDD"/>
<path d="M573.733 682.742H557.569C556.83 682.741 556.122 682.447 555.599 681.925C555.077 681.402 554.783 680.694 554.782 679.955V626.996C554.783 626.257 555.077 625.549 555.599 625.026C556.122 624.504 556.83 624.21 557.569 624.209H573.735C574.474 624.21 575.183 624.504 575.705 625.026C576.228 625.549 576.521 626.257 576.522 626.996V679.954C576.521 680.693 576.228 681.401 575.705 681.924C575.183 682.446 574.474 682.74 573.735 682.741L573.733 682.742Z" fill="#DDDDDD"/>
<path d="M611.641 682.74H595.477C594.739 682.739 594.03 682.445 593.508 681.923C592.985 681.4 592.691 680.692 592.69 679.953V608.598C592.691 607.859 592.985 607.151 593.508 606.629C594.03 606.106 594.739 605.812 595.477 605.811H611.643C612.382 605.812 613.091 606.106 613.613 606.629C614.135 607.151 614.429 607.859 614.43 608.598V679.952C614.429 680.691 614.135 681.399 613.613 681.922C613.091 682.444 612.382 682.738 611.643 682.739L611.641 682.74Z" fill="#DDDDDD"/>
<path d="M644.44 682.742H479.434C479.287 682.742 479.145 682.683 479.04 682.579C478.936 682.474 478.877 682.332 478.877 682.184C478.877 682.037 478.936 681.895 479.04 681.79C479.145 681.686 479.287 681.627 479.434 681.627H644.44C644.588 681.627 644.73 681.686 644.835 681.79C644.939 681.895 644.998 682.037 644.998 682.184C644.998 682.332 644.939 682.474 644.835 682.579C644.73 682.683 644.588 682.742 644.44 682.742Z" fill="#CCCCCC"/>
<path d="M561.096 167.492V161.071C555.704 160.747 551.412 159.214 548.218 156.471C545.025 153.728 543.336 149.951 543.15 145.139H552.284C552.318 146.212 552.58 147.265 553.053 148.229C553.525 149.192 554.198 150.044 555.026 150.727C556.779 152.092 558.888 152.925 561.1 153.127V137.78L558.319 137.048C554.581 136.238 551.104 134.509 548.201 132.018C546.998 130.889 546.051 129.514 545.425 127.987C544.799 126.46 544.509 124.816 544.574 123.167C544.526 120.511 545.269 117.9 546.709 115.667C548.183 113.447 550.203 111.643 552.574 110.428C555.224 109.061 558.122 108.245 561.095 108.028V101.468H565.26V107.994C568.312 108.122 571.301 108.903 574.024 110.285C576.387 111.492 578.401 113.285 579.873 115.492C581.29 117.662 582.061 120.19 582.094 122.781H573.104C573.033 121.88 572.784 121.003 572.372 120.199C571.96 119.394 571.393 118.68 570.704 118.095C569.144 116.844 567.247 116.082 565.254 115.908V130.382L567.58 130.972C570.11 131.591 572.561 132.493 574.887 133.662C577.13 134.761 579.082 136.374 580.584 138.37C582.117 140.549 582.891 143.171 582.784 145.833C582.837 147.827 582.453 149.807 581.658 151.636C580.863 153.465 579.678 155.098 578.184 156.42C575.118 159.197 570.808 160.747 565.254 161.071V167.492H561.096ZM565.261 153.092C567.457 152.907 569.546 152.06 571.249 150.662C571.971 150.069 572.55 149.321 572.943 148.474C573.337 147.627 573.535 146.702 573.523 145.768C573.561 144.908 573.372 144.053 572.977 143.289C572.581 142.525 571.991 141.877 571.267 141.412C569.415 140.257 567.39 139.407 565.267 138.896L565.261 153.092ZM561.096 129.311V115.948C559.146 116.14 557.306 116.942 555.837 118.239C555.231 118.793 554.75 119.469 554.424 120.223C554.097 120.977 553.935 121.791 553.945 122.612C553.905 123.466 554.087 124.316 554.472 125.079C554.858 125.843 555.434 126.493 556.145 126.968C557.666 127.999 559.336 128.789 561.096 129.311Z" fill="#F2F2F2"/>
</svg>
