<svg width="728" height="487" viewBox="0 0 728 487" fill="none" xmlns="http://www.w3.org/2000/svg">
<g clip-path="url(#clip0_79_326)">
<path d="M656.973 85.9944H639.697C640.491 87.9421 640.795 90.0553 640.58 92.1479C640.365 94.2405 639.639 96.2482 638.466 97.9941C637.293 99.74 635.708 101.171 633.852 102.16C631.995 103.149 629.924 103.666 627.82 103.667H552C549.897 103.666 547.826 103.149 545.969 102.16C544.113 101.171 542.528 99.74 541.355 97.9941C540.181 96.2482 539.455 94.2405 539.241 92.1479C539.026 90.0553 539.329 87.9421 540.124 85.9943H523.988C516.827 85.9943 509.96 88.839 504.896 93.9024C499.833 98.9659 496.988 105.833 496.988 112.994V455.196C496.988 462.357 499.833 469.224 504.896 474.288C509.96 479.351 516.827 482.196 523.988 482.196H656.973C664.133 482.196 671.001 479.351 676.064 474.288C681.128 469.224 683.973 462.357 683.973 455.196V112.994C683.973 105.833 681.128 98.9659 676.064 93.9024C671.001 88.839 664.133 85.9944 656.973 85.9944Z" fill="white"/>
<path d="M657.127 217.046C653.753 207.352 648.305 198.512 641.163 191.14C634.021 183.768 625.356 178.043 615.774 174.364C606.192 170.685 595.923 169.14 585.682 169.838C575.442 170.535 565.477 173.458 556.482 178.402C547.488 183.347 539.68 190.194 533.603 198.466C527.526 206.738 523.327 216.236 521.298 226.298C519.27 236.359 519.46 246.742 521.857 256.723C524.253 266.703 528.798 276.041 535.174 284.085C535.807 284.883 536.466 285.681 537.138 286.454C537.188 286.504 537.226 286.555 537.277 286.605C538.928 288.508 540.683 290.318 542.534 292.027C543.016 292.471 543.522 292.927 544.029 293.358C544.991 294.219 545.98 295.042 547.006 295.828C547.411 296.144 547.804 296.461 548.222 296.765C549.843 297.994 551.528 299.134 553.264 300.223L553.34 300.261C553.833 300.566 554.341 300.87 554.847 301.161C555.759 301.706 556.697 302.225 557.634 302.719L558.229 303.023C559.598 303.733 560.991 304.404 562.423 305.025C562.714 305.151 563.031 305.278 563.322 305.405C563.347 305.417 563.36 305.417 563.385 305.43C564.057 305.709 564.728 305.975 565.412 306.228C567.659 307.086 569.951 307.822 572.278 308.432C578.216 310.015 584.336 310.816 590.482 310.814C592.724 310.814 594.941 310.712 597.133 310.497C602.14 310.035 607.083 309.037 611.878 307.52C611.89 307.52 611.903 307.508 611.916 307.508C614.945 306.543 617.903 305.37 620.771 303.999C620.783 303.986 620.809 303.986 620.822 303.973C621.467 303.669 622.088 303.34 622.722 303.023C622.823 302.972 622.924 302.922 623.026 302.871C623.532 302.605 624.039 302.339 624.546 302.06C625.813 301.364 627.054 300.629 628.283 299.844C628.625 299.641 628.954 299.425 629.296 299.197C629.778 298.881 630.259 298.551 630.728 298.209C631.348 297.779 631.969 297.335 632.577 296.879C632.767 296.74 632.97 296.601 633.16 296.449C645.028 287.44 653.739 274.906 658.045 260.642C662.35 246.378 662.029 231.116 657.127 217.046Z" fill="white"/>
<path d="M627.054 293.51C621.052 290.347 614.788 287.71 608.331 285.63L607.507 276.522L574.115 272.924L569.871 284.566L557.887 289.063C557.458 289.226 557.05 289.438 556.671 289.696H556.658C555.989 290.148 555.42 290.732 554.984 291.412C554.549 292.091 554.256 292.852 554.125 293.649C553.997 294.441 554.027 295.25 554.214 296.03L554.847 298.627C555.759 299.172 556.697 299.691 557.634 300.185L558.229 300.49C559.597 301.199 560.991 301.87 562.422 302.491C562.714 302.618 563.03 302.744 563.322 302.871C563.347 302.884 563.36 302.884 563.385 302.896C564.057 303.175 564.728 303.441 565.412 303.694C567.659 304.553 569.951 305.288 572.278 305.899C578.216 307.481 584.336 308.282 590.482 308.28C592.724 308.28 594.941 308.179 597.132 307.964C602.14 307.501 607.083 306.503 611.878 304.987C611.89 304.987 611.903 304.974 611.916 304.974C614.944 304.009 617.903 302.837 620.771 301.465C620.783 301.452 620.809 301.452 620.822 301.44C621.467 301.136 622.088 300.806 622.722 300.49C622.823 300.439 622.924 300.388 623.025 300.337C623.532 300.071 624.039 299.805 624.546 299.527C625.813 298.83 627.054 298.095 628.282 297.31C628.625 297.107 628.954 296.892 629.296 296.664C629.778 296.347 630.259 296.018 630.728 295.676C629.549 294.916 628.321 294.194 627.054 293.51Z" fill="#E4E4E4"/>
<path d="M564.386 299.121L562.296 289.684H556.836C556.781 289.685 556.726 289.689 556.672 289.697H556.659C554.696 289.863 552.807 290.516 551.161 291.597C550.045 292.309 549.052 293.199 548.222 294.232C549.843 295.46 551.528 296.601 553.264 297.69L553.34 297.728C553.834 298.032 554.341 298.336 554.847 298.627C555.759 299.172 556.697 299.692 557.634 300.186L558.23 300.49C559.598 301.199 560.992 301.87 562.423 302.491C562.714 302.618 563.031 302.745 563.322 302.871C563.348 302.884 563.36 302.884 563.385 302.896C564.057 303.175 564.728 303.441 565.412 303.695L564.386 299.121Z" fill="#E4E4E4"/>
<path d="M589.501 267.166C602.783 267.166 613.55 256.399 613.55 243.116C613.55 229.834 602.783 219.067 589.501 219.067C576.219 219.067 565.451 229.834 565.451 243.116C565.451 256.399 576.219 267.166 589.501 267.166Z" fill="#A0616A"/>
<path d="M573.354 231.402C575.844 234.349 580.057 235.18 583.943 235.521C591.836 236.213 603.314 235.09 611.027 233.309C611.578 238.645 610.077 244.398 613.22 248.788C614.693 243.474 615.55 238.008 615.773 232.498C616.007 230.134 615.699 227.748 614.87 225.521C614.427 224.406 613.68 223.436 612.714 222.724C611.748 222.012 610.601 221.585 609.404 221.491C611.196 220.132 613.295 219.235 615.515 218.879L607.879 215.041L609.84 213.028L596.015 212.182L600.019 209.638C593.992 208.81 587.895 208.618 581.828 209.064C579.011 209.272 576.066 209.668 573.783 211.3C571.5 212.933 570.181 216.177 571.599 218.574C569.824 218.865 568.154 219.604 566.746 220.722C565.337 221.839 564.237 223.298 563.551 224.959C562.682 227.6 562.472 230.413 562.94 233.154C563.46 237.551 564.482 241.874 565.985 246.038L573.354 231.402Z" fill="#2E2E2E"/>
<path d="M657.127 217.046C653.753 207.352 648.305 198.512 641.163 191.14C634.021 183.768 625.356 178.043 615.774 174.364C606.192 170.685 595.923 169.14 585.682 169.838C575.442 170.535 565.477 173.458 556.482 178.402C547.488 183.347 539.68 190.194 533.603 198.466C527.526 206.738 523.327 216.236 521.298 226.298C519.27 236.359 519.46 246.742 521.857 256.723C524.253 266.703 528.798 276.041 535.174 284.085C535.807 284.883 536.466 285.681 537.138 286.454C537.188 286.504 537.226 286.555 537.277 286.605C538.928 288.508 540.683 290.318 542.534 292.027C543.016 292.471 543.522 292.927 544.029 293.358C544.991 294.219 545.98 295.042 547.006 295.828C547.411 296.144 547.804 296.461 548.222 296.765C549.843 297.994 551.528 299.134 553.264 300.223L553.34 300.261C553.833 300.566 554.341 300.87 554.847 301.161C555.759 301.706 556.697 302.225 557.634 302.719L558.229 303.023C559.598 303.733 560.991 304.404 562.423 305.025C562.714 305.151 563.031 305.278 563.322 305.405C563.347 305.417 563.36 305.417 563.385 305.43C564.057 305.709 564.728 305.975 565.412 306.228C567.659 307.086 569.951 307.822 572.278 308.432C578.216 310.015 584.336 310.816 590.482 310.814C592.724 310.814 594.941 310.712 597.133 310.497C602.14 310.035 607.083 309.037 611.878 307.52C611.89 307.52 611.903 307.508 611.916 307.508C614.945 306.543 617.903 305.37 620.771 303.999C620.783 303.986 620.809 303.986 620.822 303.973C621.467 303.669 622.088 303.34 622.722 303.023C622.823 302.972 622.924 302.922 623.026 302.871C623.532 302.605 624.039 302.339 624.546 302.06C625.813 301.364 627.054 300.629 628.283 299.844C628.625 299.641 628.954 299.425 629.296 299.197C629.778 298.881 630.259 298.551 630.728 298.209C631.348 297.779 631.969 297.335 632.577 296.879C632.767 296.74 632.97 296.601 633.16 296.449C645.028 287.44 653.739 274.906 658.045 260.642C662.35 246.378 662.029 231.116 657.127 217.046ZM630.829 293.37C630.411 293.699 629.981 294.016 629.549 294.308C629.131 294.624 628.714 294.928 628.283 295.207C627.915 295.473 627.548 295.726 627.168 295.967L627.054 296.043C626.775 296.233 626.497 296.41 626.218 296.588C625.166 297.246 624.102 297.88 623.026 298.488C622.912 298.551 622.797 298.615 622.684 298.678C622.202 298.944 621.721 299.197 621.24 299.451C621.176 299.489 621.1 299.514 621.037 299.552L620.961 299.59C620.353 299.907 619.732 300.211 619.111 300.502C616.716 301.656 614.249 302.654 611.726 303.492C611.396 303.606 611.067 303.72 610.738 303.821C606.2 305.264 601.52 306.216 596.778 306.659C594.7 306.849 592.597 306.95 590.482 306.95C584.669 306.962 578.88 306.204 573.266 304.695C570.385 303.943 567.562 302.986 564.817 301.832C564.677 301.769 564.525 301.718 564.386 301.655C564.234 301.592 564.095 301.541 563.955 301.478C563.803 301.414 563.664 301.351 563.512 301.275C562.321 300.755 561.143 300.185 559.991 299.59L559.433 299.299C558.027 298.564 556.646 297.779 555.303 296.942C554.911 296.702 554.505 296.448 554.125 296.182C554.024 296.119 553.935 296.056 553.834 295.992C552.934 295.397 552.035 294.776 551.161 294.13C550.566 293.687 549.97 293.243 549.387 292.787C548.412 292.053 547.474 291.267 546.563 290.457C546.081 290.051 545.612 289.608 545.157 289.19C543.36 287.531 541.66 285.772 540.064 283.92C539.532 283.312 539.012 282.704 538.518 282.07C538.406 281.945 538.3 281.814 538.202 281.678C529.971 271.291 525.02 258.689 523.981 245.478C522.942 232.267 525.861 219.045 532.366 207.5C538.871 195.954 548.668 186.608 560.507 180.653C572.346 174.698 585.69 172.404 598.838 174.063C611.985 175.723 624.341 181.261 634.328 189.971C644.316 198.682 651.483 210.169 654.915 222.969C658.347 235.769 657.889 249.301 653.6 261.84C649.31 274.378 641.383 285.355 630.829 293.37Z" fill="#E4E4E4"/>
<path d="M639.31 366.14H541.857C538.758 366.137 535.786 364.903 533.595 362.711C531.404 360.518 530.174 357.545 530.174 354.445C530.174 351.346 531.404 348.373 533.595 346.18C535.786 343.987 538.758 342.754 541.857 342.751H639.31C642.412 342.751 645.386 343.983 647.579 346.176C649.772 348.369 651.005 351.344 651.005 354.445C651.005 357.547 649.772 360.521 647.579 362.714C645.386 364.907 642.412 366.14 639.31 366.14Z" fill="#EEEEEE"/>
<path d="M639.31 402.197H541.857C538.758 402.194 535.786 400.961 533.595 398.768C531.404 396.575 530.174 393.602 530.174 390.503C530.174 387.403 531.404 384.43 533.595 382.237C535.786 380.045 538.758 378.811 541.857 378.808H639.31C642.412 378.808 645.386 380.041 647.579 382.234C649.772 384.427 651.005 387.401 651.005 390.503C651.005 393.604 649.772 396.579 647.579 398.772C645.386 400.965 642.412 402.197 639.31 402.197Z" fill="#EEEEEE"/>
<path d="M223.768 87.9944H206.492C207.287 89.9421 207.59 92.0553 207.375 94.1479C207.161 96.2405 206.435 98.2482 205.261 99.9941C204.088 101.74 202.503 103.171 200.647 104.16C198.79 105.149 196.719 105.666 194.616 105.667H118.796C116.692 105.666 114.621 105.149 112.765 104.16C110.908 103.171 109.323 101.74 108.15 99.9941C106.977 98.2482 106.251 96.2405 106.036 94.1479C105.821 92.0553 106.125 89.9421 106.919 87.9943H90.7837C83.6228 87.9943 76.7553 90.839 71.6918 95.9024C66.6283 100.966 63.7837 107.833 63.7837 114.994V457.196C63.7837 464.357 66.6283 471.224 71.6918 476.288C76.7553 481.351 83.6228 484.196 90.7837 484.196H223.768C230.929 484.196 237.796 481.351 242.86 476.288C247.923 471.224 250.768 464.357 250.768 457.196V114.994C250.768 107.833 247.923 100.966 242.86 95.9024C237.796 90.839 230.929 87.9944 223.768 87.9944Z" fill="white"/>
<path d="M223.923 219.046C220.548 209.352 215.1 200.512 207.958 193.14C200.816 185.768 192.152 180.043 182.57 176.364C172.988 172.685 162.718 171.14 152.478 171.838C142.237 172.535 132.272 175.458 123.278 180.402C114.283 185.347 106.475 192.194 100.398 200.466C94.3217 208.738 90.1226 218.236 88.0939 228.298C86.0651 238.359 86.2556 248.742 88.652 258.723C91.0484 268.703 95.5931 278.041 101.969 286.085C102.602 286.883 103.261 287.681 103.933 288.453C103.984 288.504 104.021 288.555 104.072 288.605C105.723 290.508 107.478 292.318 109.329 294.027C109.811 294.471 110.318 294.927 110.824 295.357C111.787 296.219 112.775 297.042 113.801 297.828C114.206 298.144 114.599 298.461 115.017 298.765C116.638 299.994 118.323 301.134 120.059 302.223L120.135 302.261C120.629 302.566 121.136 302.87 121.643 303.161C122.554 303.706 123.492 304.225 124.429 304.719L125.025 305.023C126.393 305.733 127.787 306.404 129.218 307.025C129.509 307.151 129.826 307.278 130.117 307.405C130.143 307.417 130.155 307.417 130.18 307.43C130.852 307.709 131.523 307.975 132.207 308.228C134.455 309.086 136.747 309.822 139.073 310.432C145.012 312.015 151.131 312.816 157.277 312.814C159.519 312.814 161.736 312.712 163.928 312.497C168.935 312.035 173.879 311.037 178.673 309.52C178.686 309.52 178.699 309.508 178.711 309.508C181.74 308.543 184.699 307.37 187.566 305.998C187.579 305.986 187.604 305.986 187.617 305.973C188.263 305.669 188.884 305.34 189.517 305.023C189.619 304.972 189.719 304.922 189.821 304.871C190.327 304.605 190.835 304.339 191.341 304.06C192.608 303.364 193.85 302.629 195.078 301.843C195.42 301.641 195.75 301.425 196.092 301.197C196.573 300.881 197.054 300.551 197.523 300.209C198.143 299.779 198.764 299.335 199.372 298.879C199.562 298.74 199.765 298.601 199.955 298.449C211.823 289.44 220.535 276.906 224.84 262.642C229.146 248.377 228.825 233.116 223.923 219.046Z" fill="white"/>
<path d="M206.106 368.14H108.653C105.551 368.14 102.577 366.907 100.384 364.714C98.1906 362.521 96.9585 359.547 96.9585 356.445C96.9585 353.344 98.1906 350.369 100.384 348.176C102.577 345.983 105.551 344.751 108.653 344.751H206.106C209.205 344.754 212.177 345.987 214.368 348.18C216.559 350.373 217.789 353.346 217.789 356.445C217.789 359.545 216.559 362.518 214.368 364.711C212.177 366.903 209.205 368.137 206.106 368.14Z" fill="#EEEEEE"/>
<path d="M206.106 404.197H108.653C107.116 404.199 105.594 403.897 104.174 403.31C102.754 402.723 101.464 401.862 100.377 400.776C99.2897 399.69 98.4274 398.4 97.839 396.981C97.2506 395.561 96.9478 394.039 96.9478 392.503C96.9478 390.966 97.2506 389.445 97.839 388.025C98.4274 386.606 99.2897 385.316 100.377 384.23C101.464 383.144 102.754 382.283 104.174 381.696C105.594 381.109 107.116 380.807 108.653 380.808H206.106C209.207 380.808 212.182 382.041 214.375 384.234C216.568 386.427 217.8 389.401 217.8 392.503C217.8 395.604 216.568 398.579 214.375 400.772C212.182 402.965 209.207 404.197 206.106 404.197Z" fill="#EEEEEE"/>
<path d="M132.41 258.755L136.509 272.954L188.888 272.029L188.429 246.014C188.066 225.422 173.513 207.662 152.921 208.025C132.33 208.388 119.236 225.797 119.6 246.389L122.591 273.199L131.131 273.048L132.41 258.755Z" fill="#2E2E2E"/>
<path d="M155.262 268.683C168.242 268.683 178.764 258.161 178.764 245.182C178.764 232.203 168.242 221.681 155.262 221.681C142.283 221.681 131.761 232.203 131.761 245.182C131.761 258.161 142.283 268.683 155.262 268.683Z" fill="#FFB6B6"/>
<path d="M202.041 281.831L201.509 291.716C190.229 303.449 174.843 310.355 158.581 310.984C142.319 311.614 126.445 305.919 114.292 295.095C113.749 294.617 113.216 294.117 112.695 293.607C115.954 290.37 124.948 282.375 134.931 281.636L179.946 278.801C179.946 278.801 197.001 276.802 202.041 281.831Z" fill="#E4E4E4"/>
<path d="M180.989 228.68C180.958 226.88 180.395 225.13 179.371 223.65C179.262 223.498 179.154 223.357 179.045 223.216C178.174 222.105 177.058 221.21 175.784 220.601C174.51 219.992 173.113 219.687 171.701 219.707L154.81 220.011L137.929 220.305C135.511 220.353 133.21 221.358 131.531 223.098C129.851 224.839 128.929 227.174 128.967 229.592L132.987 237.685L135.301 242.334L135.681 242.117C150.291 233.905 156.265 233.796 175.601 241.433L175.992 241.585L177.524 237.663L181 228.767L180.989 228.68Z" fill="#2E2E2E"/>
<path d="M207.374 288.481C206.016 290.219 204.79 290.188 203.258 291.774C199.392 295.804 193.221 299.255 188.398 302.134L187.344 283.254L202.041 281.831C204.488 283.417 206.358 285.749 207.374 288.481Z" fill="#E4E4E4"/>
<path d="M223.923 219.046C220.548 209.352 215.1 200.512 207.958 193.14C200.816 185.768 192.152 180.043 182.57 176.364C172.988 172.685 162.718 171.14 152.478 171.838C142.237 172.535 132.272 175.458 123.278 180.402C114.283 185.347 106.475 192.194 100.398 200.466C94.3217 208.738 90.1226 218.236 88.0939 228.298C86.0651 238.359 86.2556 248.742 88.652 258.723C91.0484 268.703 95.5931 278.041 101.969 286.085C102.602 286.883 103.261 287.681 103.933 288.453C103.984 288.504 104.021 288.555 104.072 288.605C105.723 290.508 107.478 292.318 109.329 294.027C109.811 294.471 110.318 294.927 110.824 295.357C111.787 296.219 112.775 297.042 113.801 297.828C114.206 298.144 114.599 298.461 115.017 298.765C116.638 299.994 118.323 301.134 120.059 302.223L120.135 302.261C120.629 302.566 121.136 302.87 121.643 303.161C122.554 303.706 123.492 304.225 124.429 304.719L125.025 305.023C126.393 305.733 127.787 306.404 129.218 307.025C129.509 307.151 129.826 307.278 130.117 307.405C130.143 307.417 130.155 307.417 130.18 307.43C130.852 307.709 131.523 307.975 132.207 308.228C134.455 309.086 136.747 309.822 139.073 310.432C145.012 312.015 151.131 312.816 157.277 312.814C159.519 312.814 161.736 312.712 163.928 312.497C168.935 312.035 173.879 311.037 178.673 309.52C178.686 309.52 178.699 309.508 178.711 309.508C181.74 308.543 184.699 307.37 187.566 305.998C187.579 305.986 187.604 305.986 187.617 305.973C188.263 305.669 188.884 305.34 189.517 305.023C189.619 304.972 189.719 304.922 189.821 304.871C190.327 304.605 190.835 304.339 191.341 304.06C192.608 303.364 193.85 302.629 195.078 301.843C195.42 301.641 195.75 301.425 196.092 301.197C196.573 300.881 197.054 300.551 197.523 300.209C198.143 299.779 198.764 299.335 199.372 298.879C199.562 298.74 199.765 298.601 199.955 298.449C211.823 289.44 220.535 276.906 224.84 262.642C229.146 248.377 228.825 233.116 223.923 219.046ZM197.625 295.37C197.206 295.699 196.776 296.016 196.345 296.308C195.927 296.624 195.509 296.928 195.078 297.207C194.711 297.473 194.343 297.726 193.963 297.967L193.85 298.043C193.571 298.233 193.292 298.41 193.013 298.588C191.962 299.246 190.898 299.88 189.821 300.488C189.707 300.551 189.593 300.615 189.479 300.678C188.998 300.944 188.516 301.197 188.035 301.451C187.971 301.489 187.895 301.514 187.832 301.552L187.756 301.59C187.148 301.907 186.527 302.211 185.907 302.502C183.511 303.656 181.045 304.654 178.521 305.492C178.192 305.606 177.863 305.72 177.533 305.821C172.995 307.264 168.315 308.216 163.573 308.659C161.496 308.849 159.393 308.95 157.277 308.95C151.464 308.962 145.676 308.204 140.062 306.695C137.181 305.943 134.357 304.986 131.612 303.832C131.473 303.769 131.32 303.718 131.181 303.655C131.03 303.592 130.89 303.541 130.751 303.477C130.599 303.414 130.459 303.351 130.307 303.275C129.117 302.755 127.938 302.185 126.786 301.59L126.229 301.299C124.822 300.564 123.441 299.779 122.099 298.942C121.706 298.702 121.301 298.448 120.92 298.182C120.819 298.119 120.73 298.056 120.629 297.992C119.729 297.397 118.83 296.776 117.956 296.13C117.361 295.687 116.765 295.243 116.183 294.787C115.207 294.053 114.27 293.267 113.358 292.456C112.877 292.051 112.408 291.608 111.952 291.19C110.156 289.531 108.455 287.772 106.859 285.92C106.327 285.312 105.808 284.704 105.314 284.07C105.201 283.945 105.095 283.814 104.997 283.678C96.7661 273.291 91.8154 260.689 90.7761 247.478C89.7368 234.267 92.656 221.045 99.1613 209.5C105.667 197.954 115.463 188.608 127.302 182.653C139.141 176.698 152.485 174.404 165.633 176.063C178.781 177.723 191.136 183.261 201.124 191.971C211.111 200.682 218.278 212.169 221.71 224.969C225.143 237.769 224.685 251.301 220.395 263.84C216.105 276.378 208.178 287.355 197.625 295.37Z" fill="#E4E4E4"/>
<path d="M454.872 483.362H293.303C284.209 483.351 275.489 479.734 269.058 473.303C262.628 466.872 259.01 458.153 259 449.058V33.3037C259.01 24.209 262.628 15.4897 269.058 9.05876C275.489 2.62779 284.209 -0.989667 293.303 -1H315.139L314.296 1.06641C313.424 3.20504 313.091 5.52541 313.326 7.82312C313.562 10.1208 314.359 12.3253 315.647 14.2424C316.936 16.1595 318.676 17.7304 320.714 18.8166C322.752 19.9028 325.027 20.471 327.336 20.4712H419.453C421.762 20.471 424.037 19.9027 426.075 18.8166C428.113 17.7304 429.854 16.1596 431.142 14.2425C432.43 12.3254 433.227 10.1209 433.463 7.82324C433.699 5.52553 433.366 3.20513 432.494 1.06641L431.651 -1H454.872C463.966 -0.989686 472.686 2.62776 479.117 9.05872C485.548 15.4897 489.165 24.209 489.175 33.3037V449.058C489.165 458.153 485.547 466.872 479.117 473.303C472.686 479.734 463.966 483.351 454.872 483.362Z" fill="white"/>
<path d="M454.872 483.362H293.303C284.209 483.351 275.489 479.734 269.058 473.303C262.628 466.872 259.01 458.153 259 449.058V33.3037C259.01 24.209 262.628 15.4897 269.058 9.05876C275.489 2.62779 284.209 -0.989667 293.303 -1H315.139L314.296 1.06641C313.424 3.20504 313.091 5.52541 313.326 7.82312C313.562 10.1208 314.359 12.3253 315.647 14.2424C316.936 16.1595 318.676 17.7304 320.714 18.8166C322.752 19.9028 325.027 20.471 327.336 20.4712H419.453C421.762 20.471 424.037 19.9027 426.075 18.8166C428.113 17.7304 429.854 16.1596 431.142 14.2425C432.43 12.3254 433.227 10.1209 433.463 7.82324C433.699 5.52553 433.366 3.20513 432.494 1.06641L431.651 -1H454.872C463.966 -0.989686 472.686 2.62776 479.117 9.05872C485.548 15.4897 489.165 24.209 489.175 33.3037V449.058C489.165 458.153 485.547 466.872 479.117 473.303C472.686 479.734 463.966 483.351 454.872 483.362ZM293.303 2C285.004 2.00947 277.047 5.31059 271.179 11.1791C265.31 17.0477 262.009 25.0044 262 33.3037V449.058C262.009 457.357 265.31 465.314 271.179 471.183C277.047 477.051 285.004 480.352 293.303 480.362H454.872C463.171 480.352 471.128 477.051 476.996 471.183C482.865 465.314 486.166 457.357 486.175 449.058V33.3037C486.166 25.0044 482.865 17.0476 476.996 11.1791C471.128 5.31054 463.171 2.00945 454.872 2H435.967C436.639 4.52992 436.72 7.18028 436.205 9.74658C435.69 12.3129 434.592 14.7265 432.996 16.8013C431.4 18.8761 429.349 20.5565 427.001 21.713C424.653 22.8694 422.07 23.4709 419.453 23.4712H327.336C324.719 23.4702 322.137 22.8682 319.79 21.7115C317.442 20.5548 315.391 18.8744 313.796 16.7997C312.2 14.7251 311.102 12.3117 310.587 9.7457C310.072 7.17971 310.153 4.52967 310.824 1.99997L293.303 2Z" fill="#5B6C90"/>
<path d="M459.586 146.072C455.486 134.295 448.867 123.553 440.19 114.597C431.512 105.641 420.986 98.6852 409.344 94.2153C397.702 89.7453 385.226 87.8686 372.784 88.716C360.343 89.5634 348.236 93.1145 337.308 99.1218C326.38 105.129 316.894 113.448 309.511 123.498C302.128 133.548 297.026 145.087 294.562 157.312C292.097 169.536 292.328 182.151 295.24 194.277C298.151 206.402 303.673 217.747 311.419 227.519C312.189 228.489 312.989 229.459 313.804 230.398C313.866 230.459 313.912 230.521 313.973 230.582C315.98 232.894 318.113 235.093 320.361 237.17C320.946 237.708 321.561 238.262 322.177 238.786C323.347 239.832 324.547 240.832 325.794 241.787C328.228 243.705 330.766 245.488 333.397 247.127L333.489 247.173C335.197 248.235 336.936 249.22 338.707 250.159L339.43 250.529C341.092 251.391 342.785 252.206 344.524 252.96C344.878 253.114 345.263 253.268 345.617 253.422C345.648 253.438 345.664 253.438 345.694 253.453C349.208 254.914 352.818 256.133 356.499 257.1C363.713 259.023 371.148 259.996 378.615 259.994C381.339 259.994 384.032 259.871 386.695 259.609C392.779 259.048 398.785 257.835 404.61 255.992C404.625 255.992 404.641 255.977 404.656 255.977C408.335 254.805 411.93 253.38 415.414 251.714C415.429 251.698 415.461 251.698 415.476 251.683C416.26 251.314 417.015 250.913 417.784 250.529C417.908 250.467 418.031 250.405 418.154 250.344C418.769 250.021 419.385 249.697 420 249.359C421.54 248.512 423.048 247.62 424.541 246.666C424.957 246.419 425.356 246.158 425.772 245.881C427.126 244.988 428.465 244.034 429.758 243.064C429.989 242.895 430.235 242.726 430.467 242.541C444.885 231.596 455.469 216.367 460.7 199.037C465.931 181.707 465.541 163.166 459.586 146.072Z" fill="white"/>
<path d="M406.909 209.596C414.006 209.596 419.759 203.843 419.759 196.746C419.759 189.65 414.006 183.896 406.909 183.896C399.812 183.896 394.059 189.65 394.059 196.746C394.059 203.843 399.812 209.596 406.909 209.596Z" fill="#2F2E41"/>
<path d="M410.489 184.251C412.713 184.251 414.899 184.828 416.833 185.926C418.767 187.024 420.383 188.605 421.523 190.514C422.663 192.424 423.288 194.597 423.337 196.82C423.385 199.044 422.856 201.242 421.801 203.2C422.915 201.806 423.726 200.195 424.183 198.47C424.64 196.746 424.732 194.945 424.455 193.182C424.178 191.42 423.536 189.734 422.571 188.234C421.606 186.733 420.34 185.449 418.851 184.465C417.363 183.481 415.686 182.817 413.928 182.517C412.169 182.217 410.367 182.286 408.636 182.72C406.906 183.155 405.285 183.945 403.877 185.04C402.468 186.136 401.304 187.513 400.457 189.083C401.658 187.575 403.184 186.357 404.921 185.52C406.659 184.684 408.562 184.25 410.49 184.251H410.489Z" fill="#2F2E41"/>
<path d="M382.896 196.719C403.744 196.719 420.644 179.818 420.644 158.971C420.644 138.124 403.744 121.224 382.896 121.224C362.049 121.224 345.149 138.124 345.149 158.971C345.149 179.818 362.049 196.719 382.896 196.719Z" fill="#2F2E41"/>
<path d="M353.271 135.551C359.775 128.236 368.866 123.735 378.627 122.996C388.387 122.258 398.053 125.34 405.584 131.593C405.276 131.299 404.968 131.003 404.649 130.719C397.192 124.046 387.39 120.609 377.398 121.161C367.406 121.713 358.043 126.21 351.366 133.664C344.689 141.117 341.245 150.917 341.79 160.909C342.336 170.901 346.826 180.267 354.275 186.949C354.347 187.013 354.419 187.077 354.491 187.141C354.811 187.426 355.14 187.695 355.468 187.967C348.377 181.221 344.183 171.983 343.774 162.203C343.364 152.424 346.77 142.867 353.272 135.551L353.271 135.551Z" fill="#2F2E41"/>
<path d="M382.576 196.398C396.003 196.398 406.887 185.514 406.887 172.087C406.887 158.66 396.003 147.776 382.576 147.776C369.149 147.776 358.265 158.66 358.265 172.087C358.265 185.514 369.149 196.398 382.576 196.398Z" fill="#A0616A"/>
<path d="M426.08 235.43V243.587C424.587 244.542 423.078 245.434 421.539 246.281C420.924 246.619 420.308 246.943 419.693 247.266C419.57 247.327 419.446 247.389 419.323 247.45C418.554 247.835 417.799 248.235 417.014 248.605C416.999 248.62 416.968 248.62 416.953 248.635C413.469 250.302 409.874 251.727 406.194 252.899C406.179 252.899 406.164 252.914 406.148 252.914C400.323 254.757 394.317 255.969 388.233 256.531C385.571 256.793 382.877 256.916 380.153 256.916C372.687 256.918 365.252 255.945 358.037 254.022C354.357 253.055 350.747 251.836 347.233 250.375C347.202 250.359 347.187 250.359 347.156 250.344C346.802 250.19 346.417 250.036 346.063 249.882C344.324 249.128 342.631 248.312 340.969 247.45L340.246 247.081C338.475 246.142 336.736 245.157 335.028 244.095L334.936 244.049C332.305 242.41 329.767 240.627 327.333 238.708C326.086 237.754 324.886 236.754 323.716 235.707C323.1 235.184 322.485 234.63 321.9 234.091C319.651 232.015 317.519 229.815 315.512 227.504C315.778 225.901 316.17 224.321 316.682 222.779L316.697 222.764C316.789 222.501 316.897 222.244 317.02 221.994C317.105 221.773 317.203 221.557 317.313 221.348C320.068 216.192 325.055 214.914 331.242 214.637C334.736 214.483 338.598 214.653 342.677 214.607C344.832 214.591 347.063 214.514 349.295 214.314C363.378 213.037 360.823 204.726 361.454 200.247C362.085 195.907 365.994 199.662 366.256 199.908L366.271 199.924C374.24 203.653 383.057 205.199 391.82 204.402C393.328 204.218 394.836 204.11 396.344 204.064C400.315 204.018 399.453 205.157 398.084 206.095C397.419 206.533 396.725 206.924 396.006 207.265C396.006 207.265 395.375 211.113 394.729 216.869C394.113 222.379 413.521 224.287 417.323 225.488H417.337C419.507 226.286 421.444 227.613 422.971 229.349C424.497 231.086 425.566 233.176 426.08 235.43Z" fill="#3A404F"/>
<path d="M361.783 141.698V166.016H367.413L374.578 158.339L373.619 166.016H398.506L396.966 158.339L400.045 166.016H404.012V141.698H361.783Z" fill="#2F2E41"/>
<path d="M357.945 170.488C359.005 170.488 359.864 168.913 359.864 166.97C359.864 165.027 359.005 163.452 357.945 163.452C356.885 163.452 356.025 165.027 356.025 166.97C356.025 168.913 356.885 170.488 357.945 170.488Z" fill="#A0616A"/>
<path d="M407.209 170.488C408.269 170.488 409.128 168.913 409.128 166.97C409.128 165.027 408.269 163.452 407.209 163.452C406.149 163.452 405.29 165.027 405.29 166.97C405.29 168.913 406.149 170.488 407.209 170.488Z" fill="#A0616A"/>
<path d="M459.586 146.072C455.486 134.295 448.867 123.553 440.19 114.597C431.512 105.641 420.986 98.6852 409.344 94.2153C397.702 89.7453 385.226 87.8686 372.784 88.716C360.343 89.5634 348.236 93.1145 337.308 99.1218C326.38 105.129 316.894 113.448 309.511 123.498C302.128 133.548 297.026 145.087 294.562 157.312C292.097 169.536 292.328 182.151 295.24 194.277C298.151 206.402 303.673 217.747 311.419 227.519C312.189 228.489 312.989 229.459 313.804 230.398C313.866 230.459 313.912 230.521 313.973 230.582C315.98 232.894 318.113 235.093 320.361 237.17C320.946 237.708 321.561 238.262 322.177 238.786C323.347 239.832 324.547 240.832 325.794 241.787C328.228 243.705 330.766 245.488 333.397 247.127L333.489 247.173C335.197 248.235 336.936 249.22 338.707 250.159L339.43 250.529C341.092 251.391 342.785 252.206 344.524 252.96C344.878 253.114 345.263 253.268 345.617 253.422C345.648 253.438 345.664 253.438 345.694 253.453C349.208 254.914 352.818 256.133 356.499 257.1C363.713 259.023 371.148 259.996 378.615 259.994C381.339 259.994 384.032 259.871 386.695 259.609C392.779 259.048 398.785 257.835 404.61 255.992C404.625 255.992 404.641 255.977 404.656 255.977C408.335 254.805 411.93 253.38 415.414 251.714C415.429 251.698 415.461 251.698 415.476 251.683C416.26 251.314 417.015 250.913 417.784 250.529C417.908 250.467 418.031 250.405 418.154 250.344C418.769 250.021 419.385 249.697 420 249.359C421.54 248.512 423.048 247.62 424.541 246.666C424.957 246.419 425.356 246.158 425.772 245.881C427.126 244.988 428.465 244.034 429.758 243.064C429.989 242.895 430.235 242.726 430.467 242.541C444.885 231.596 455.469 216.367 460.7 199.037C465.931 181.707 465.541 163.166 459.586 146.072ZM427.634 238.801C427.126 239.201 426.603 239.586 426.08 239.94C425.572 240.325 425.064 240.694 424.541 241.032C424.095 241.356 423.648 241.664 423.186 241.956C422.801 242.218 422.416 242.464 422.032 242.71C420.755 243.51 419.462 244.28 418.154 245.019C418.015 245.096 417.877 245.173 417.738 245.25C417.153 245.573 416.568 245.881 415.984 246.188C415.906 246.235 415.814 246.265 415.737 246.312L415.645 246.358C414.906 246.743 414.152 247.112 413.398 247.466C410.488 248.867 407.49 250.081 404.425 251.098C404.025 251.237 403.624 251.375 403.225 251.498C397.711 253.252 392.025 254.408 386.264 254.946C383.74 255.177 381.185 255.3 378.615 255.3C371.552 255.314 364.519 254.393 357.699 252.56C354.199 251.647 350.768 250.484 347.433 249.082C347.079 248.943 346.725 248.79 346.386 248.651C346.202 248.574 346.032 248.497 345.848 248.405C344.401 247.774 342.97 247.081 341.569 246.358L340.892 246.004C339.184 245.111 337.506 244.157 335.874 243.141C335.275 242.772 334.674 242.387 334.09 241.987C332.242 240.771 330.442 239.463 328.687 238.093C327.502 237.2 326.363 236.246 325.255 235.261C324.67 234.769 324.101 234.23 323.547 233.722C321.365 231.707 319.299 229.569 317.36 227.319C316.713 226.581 316.082 225.842 315.482 225.072C315.345 224.92 315.217 224.761 315.097 224.595C305.097 211.977 299.082 196.665 297.82 180.615C296.557 164.564 300.104 148.5 308.007 134.473C315.911 120.446 327.813 109.091 342.197 101.856C356.58 94.6211 372.793 91.8341 388.766 93.8505C404.74 95.8668 419.751 102.595 431.885 113.178C444.02 123.76 452.727 137.717 456.897 153.268C461.067 168.819 460.511 185.26 455.299 200.493C450.087 215.727 440.456 229.063 427.634 238.801Z" fill="#5B6C90"/>
<path d="M437.785 327.086H319.386C315.62 327.083 312.009 325.584 309.347 322.92C306.685 320.256 305.19 316.644 305.19 312.878C305.19 309.112 306.685 305.5 309.347 302.836C312.009 300.172 315.62 298.673 319.386 298.67H437.785C439.652 298.668 441.501 299.035 443.226 299.748C444.951 300.461 446.519 301.508 447.84 302.827C449.16 304.147 450.208 305.714 450.923 307.438C451.637 309.163 452.005 311.011 452.005 312.878C452.005 314.745 451.637 316.593 450.923 318.318C450.208 320.042 449.16 321.609 447.84 322.929C446.519 324.248 444.951 325.295 443.226 326.008C441.501 326.721 439.652 327.087 437.785 327.086Z" fill="#0077FF"/>
<path d="M437.785 370.894H319.386C315.62 370.891 312.009 369.392 309.347 366.728C306.685 364.064 305.19 360.452 305.19 356.686C305.19 352.92 306.685 349.308 309.347 346.643C312.009 343.979 315.62 342.481 319.386 342.478H437.785C439.652 342.476 441.501 342.843 443.226 343.556C444.951 344.269 446.519 345.316 447.84 346.635C449.16 347.954 450.208 349.521 450.923 351.246C451.637 352.97 452.005 354.819 452.005 356.686C452.005 358.553 451.637 360.401 450.923 362.126C450.208 363.85 449.16 365.417 447.84 366.737C446.519 368.056 444.951 369.102 443.226 369.816C441.501 370.529 439.652 370.895 437.785 370.894Z" fill="#0077FF"/>
<path d="M374.442 433.053C382.289 433.053 388.65 426.692 388.65 418.845C388.65 410.999 382.289 404.638 374.442 404.638C366.595 404.638 360.234 410.999 360.234 418.845C360.234 426.692 366.595 433.053 374.442 433.053Z" fill="#303030"/>
<path d="M444.064 418.844C437.339 416.352 428.996 412.094 423.824 407.585L427.469 417.66H401.673V420.028H427.469L423.824 430.106C428.996 425.597 437.339 421.34 444.064 418.844Z" fill="#303030"/>
<path d="M304.819 418.844C311.544 416.352 319.887 412.094 325.059 407.585L321.414 417.66H347.21V420.028H321.414L325.059 430.106C319.887 425.597 311.544 421.34 304.819 418.844Z" fill="#303030"/>
</g>
<defs>
<clipPath id="clip0_79_326">
<rect width="728" height="486.494" fill="white"/>
</clipPath>
</defs>
</svg>
