<svg width="1368" height="746" viewBox="0 0 1368 746" fill="none" xmlns="http://www.w3.org/2000/svg">
<g clip-path="url(#clip0_81_666)">
<path d="M496.644 234.852L498.501 284.031H493.979V289.598H506.618V284.031H502.932L503.195 234.852H496.644Z" fill="#3A404F"/>
<path d="M491.767 276.144C493.691 276.144 495.251 277.702 495.251 279.623V294.006C495.251 295.928 493.691 297.485 491.767 297.485C489.844 297.485 488.284 295.928 488.284 294.006V279.623C488.284 277.702 489.844 276.144 491.767 276.144Z" fill="#3A404F"/>
<path d="M509.416 276.144C511.34 276.144 512.899 277.702 512.899 279.623V294.006C512.899 295.928 511.34 297.485 509.416 297.485C507.492 297.485 505.933 295.928 505.933 294.006V279.623C505.933 277.702 507.492 276.144 509.416 276.144Z" fill="#3A404F"/>
<path d="M735 651.741C753.7 664.667 771.95 678.463 792.787 687.436C844.381 709.656 903.774 699.293 958.062 684.851C1012.35 670.409 1067.76 652.059 1123.45 659.503C1155.02 663.724 1184.83 676.077 1215.3 685.344C1245.78 694.612 1278.57 700.818 1309.32 692.497C1340.07 684.176 1367.8 657.791 1368.61 625.947C1136.47 583.028 921.26 581.754 735 651.741Z" fill="white"/>
<path d="M447 697.741C465.7 710.667 483.95 724.463 504.787 733.436C556.381 755.656 615.774 745.293 670.062 730.851C724.349 716.409 779.765 698.059 835.445 705.503C867.018 709.724 896.827 722.077 927.303 731.344C957.779 740.612 990.57 746.818 1021.32 738.497C1052.07 730.176 1079.8 703.791 1080.61 671.947C848.473 629.028 633.26 627.754 447 697.741Z" fill="white"/>
<path d="M655.049 618.873C629.143 618.253 601.372 632.768 594 657.611L734.624 651.886C731.965 650.048 729.293 648.232 726.61 646.44C705.034 632.089 680.955 619.493 655.049 618.873Z" fill="white"/>
<path d="M367.049 664.873C341.143 664.253 313.372 678.768 306 703.611L446.624 697.886C443.965 696.048 441.293 694.232 438.61 692.44C417.034 678.089 392.955 665.493 367.049 664.873Z" fill="white"/>
<path d="M758.336 483.728H612.976C610.903 483.729 608.914 484.553 607.448 486.019C605.982 487.486 605.158 489.474 605.156 491.547V544.507C605.158 546.581 605.982 548.569 607.448 550.036C608.914 551.502 610.903 552.326 612.976 552.327H758.336C760.41 552.326 762.398 551.502 763.864 550.036C765.331 548.569 766.155 546.581 766.156 544.507V491.547C766.155 489.474 765.331 487.486 763.864 486.019C762.398 484.553 760.41 483.729 758.336 483.728Z" fill="#E6E6E6"/>
<path d="M619.656 483.728H615.656V552.328H619.656V483.728Z" fill="#CCCCCC"/>
<path d="M636.656 483.728H632.656V552.328H636.656V483.728Z" fill="#CCCCCC"/>
<path d="M653.656 483.728H649.656V552.328H653.656V483.728Z" fill="#CCCCCC"/>
<path d="M670.656 483.728H666.656V552.328H670.656V483.728Z" fill="#CCCCCC"/>
<path d="M687.656 483.728H683.656V552.328H687.656V483.728Z" fill="#CCCCCC"/>
<path d="M704.656 483.728H700.656V552.328H704.656V483.728Z" fill="#CCCCCC"/>
<path d="M721.656 483.728H717.656V552.328H721.656V483.728Z" fill="#CCCCCC"/>
<path d="M738.656 483.728H734.656V552.328H738.656V483.728Z" fill="#CCCCCC"/>
<path d="M755.656 483.728H751.656V552.328H755.656V483.728Z" fill="#CCCCCC"/>
<path d="M908.386 359.855L890.54 321.459C889.23 318.642 887.143 316.257 884.524 314.586C881.905 312.916 878.863 312.028 875.757 312.028H854.729C856.315 309.292 857.152 306.187 857.156 303.024C857.161 299.862 856.332 296.754 854.753 294.014C853.174 291.274 850.901 288.998 848.163 287.416C845.425 285.833 842.319 285 839.156 285C835.994 285 832.887 285.833 830.149 287.416C827.411 288.998 825.139 291.274 823.56 294.014C821.981 296.754 821.152 299.862 821.156 303.024C821.161 306.187 821.998 309.292 823.584 312.028H802.556C799.45 312.028 796.408 312.916 793.789 314.586C791.17 316.257 789.083 318.642 787.773 321.459L769.927 359.855C768.772 362.339 768.262 365.074 768.444 367.807C768.626 370.541 769.493 373.184 770.967 375.494C772.44 377.803 774.471 379.704 776.874 381.021C779.276 382.338 781.971 383.028 784.71 383.028H834.156V569.028H844.156V383.028H893.603C896.342 383.028 899.037 382.338 901.439 381.021C903.841 379.704 905.873 377.803 907.346 375.494C908.819 373.184 909.687 370.541 909.869 367.807C910.05 365.074 909.54 362.339 908.386 359.855Z" fill="#DBDBDB"/>
<path d="M1115.34 483.728H969.976C967.903 483.729 965.914 484.553 964.448 486.019C962.982 487.486 962.158 489.474 962.156 491.547V544.507C962.158 546.581 962.982 548.569 964.448 550.036C965.914 551.502 967.903 552.326 969.976 552.327H1115.34C1117.41 552.326 1119.4 551.502 1120.86 550.036C1122.33 548.569 1123.15 546.581 1123.16 544.507V491.547C1123.15 489.474 1122.33 487.486 1120.86 486.019C1119.4 484.553 1117.41 483.729 1115.34 483.728Z" fill="#E6E6E6"/>
<path d="M976.656 483.728H972.656V552.328H976.656V483.728Z" fill="#CCCCCC"/>
<path d="M993.656 483.728H989.656V552.328H993.656V483.728Z" fill="#CCCCCC"/>
<path d="M1010.66 483.728H1006.66V552.328H1010.66V483.728Z" fill="#CCCCCC"/>
<path d="M1027.66 483.728H1023.66V552.328H1027.66V483.728Z" fill="#CCCCCC"/>
<path d="M1044.66 483.728H1040.66V552.328H1044.66V483.728Z" fill="#CCCCCC"/>
<path d="M1061.66 483.728H1057.66V552.328H1061.66V483.728Z" fill="#CCCCCC"/>
<path d="M1078.66 483.728H1074.66V552.328H1078.66V483.728Z" fill="#CCCCCC"/>
<path d="M1095.66 483.728H1091.66V552.328H1095.66V483.728Z" fill="#CCCCCC"/>
<path d="M1112.66 483.728H1108.66V552.328H1112.66V483.728Z" fill="#CCCCCC"/>
<path d="M953.336 483.728H807.976C805.903 483.729 803.914 484.553 802.448 486.019C800.982 487.486 800.158 489.474 800.156 491.547V544.507C800.158 546.581 800.982 548.569 802.448 550.036C803.914 551.502 805.903 552.326 807.976 552.327H953.336C955.41 552.326 957.398 551.502 958.864 550.036C960.331 548.569 961.155 546.581 961.156 544.507V491.547C961.155 489.474 960.331 487.486 958.864 486.019C957.398 484.553 955.41 483.729 953.336 483.728Z" fill="#E6E6E6"/>
<path d="M814.656 483.728H810.656V552.328H814.656V483.728Z" fill="#CCCCCC"/>
<path d="M831.656 483.728H827.656V552.328H831.656V483.728Z" fill="#CCCCCC"/>
<path d="M848.656 483.728H844.656V552.328H848.656V483.728Z" fill="#CCCCCC"/>
<path d="M865.656 483.728H861.656V552.328H865.656V483.728Z" fill="#CCCCCC"/>
<path d="M882.656 483.728H878.656V552.328H882.656V483.728Z" fill="#CCCCCC"/>
<path d="M899.656 483.728H895.656V552.328H899.656V483.728Z" fill="#CCCCCC"/>
<path d="M916.656 483.728H912.656V552.328H916.656V483.728Z" fill="#CCCCCC"/>
<path d="M933.656 483.728H929.656V552.328H933.656V483.728Z" fill="#CCCCCC"/>
<path d="M950.656 483.728H946.656V552.328H950.656V483.728Z" fill="#CCCCCC"/>
<path d="M1126.34 414.728H980.976C978.903 414.729 976.914 415.554 975.448 417.02C973.982 418.486 973.158 420.474 973.156 422.548V475.508C973.158 477.582 973.982 479.57 975.448 481.036C976.914 482.502 978.903 483.327 980.976 483.328H1126.34C1128.41 483.327 1130.4 482.502 1131.86 481.036C1133.33 479.57 1134.15 477.582 1134.16 475.508V422.548C1134.15 420.474 1133.33 418.486 1131.86 417.02C1130.4 415.554 1128.41 414.729 1126.34 414.728Z" fill="white"/>
<path d="M987.656 414.728H983.656V483.328H987.656V414.728Z" fill="#BBBBBB"/>
<path d="M1004.66 414.728H1000.66V483.328H1004.66V414.728Z" fill="#BBBBBB"/>
<path d="M1021.66 414.728H1017.66V483.328H1021.66V414.728Z" fill="#BBBBBB"/>
<path d="M1038.66 414.728H1034.66V483.328H1038.66V414.728Z" fill="#BBBBBB"/>
<path d="M1055.66 414.728H1051.66V483.328H1055.66V414.728Z" fill="#BBBBBB"/>
<path d="M1072.66 414.728H1068.66V483.328H1072.66V414.728Z" fill="#BBBBBB"/>
<path d="M1089.66 414.728H1085.66V483.328H1089.66V414.728Z" fill="#BBBBBB"/>
<path d="M1106.66 414.728H1102.66V483.328H1106.66V414.728Z" fill="#BBBBBB"/>
<path d="M1123.66 414.728H1119.66V483.328H1123.66V414.728Z" fill="#BBBBBB"/>
<path d="M1083.34 488.728H937.976C935.903 488.729 933.914 489.553 932.448 491.019C930.982 492.486 930.158 494.474 930.156 496.547V549.507C930.158 551.581 930.982 553.569 932.448 555.036C933.914 556.502 935.903 557.326 937.976 557.327H1083.34C1085.41 557.326 1087.4 556.502 1088.86 555.036C1090.33 553.569 1091.15 551.581 1091.16 549.507V496.547C1091.15 494.474 1090.33 492.486 1088.86 491.019C1087.4 489.553 1085.41 488.729 1083.34 488.728Z" fill="#BECFE2"/>
<path d="M944.656 488.728H940.656V557.328H944.656V488.728Z" fill="#3A404F"/>
<path d="M961.656 488.728H957.656V557.328H961.656V488.728Z" fill="#3A404F"/>
<path d="M978.656 488.728H974.656V557.328H978.656V488.728Z" fill="#3A404F"/>
<path d="M995.656 488.728H991.656V557.328H995.656V488.728Z" fill="#3A404F"/>
<path d="M1012.66 488.728H1008.66V557.328H1012.66V488.728Z" fill="#3A404F"/>
<path d="M1029.66 488.728H1025.66V557.328H1029.66V488.728Z" fill="#3A404F"/>
<path d="M1046.66 488.728H1042.66V557.328H1046.66V488.728Z" fill="#3A404F"/>
<path d="M1063.66 488.728H1059.66V557.328H1063.66V488.728Z" fill="#3A404F"/>
<path d="M1080.66 488.728H1076.66V557.328H1080.66V488.728Z" fill="#3A404F"/>
<path d="M900.336 488.728H754.976C752.903 488.729 750.914 489.553 749.448 491.019C747.982 492.486 747.158 494.474 747.156 496.547V549.507C747.158 551.581 747.982 553.569 749.448 555.036C750.914 556.502 752.903 557.326 754.976 557.327H900.336C902.41 557.326 904.398 556.502 905.864 555.036C907.331 553.569 908.155 551.581 908.156 549.507V496.547C908.155 494.474 907.331 492.486 905.864 491.019C904.398 489.553 902.41 488.729 900.336 488.728Z" fill="#C5C5C5"/>
<path d="M761.656 488.728H757.656V557.328H761.656V488.728Z" fill="#3A404F"/>
<path d="M778.656 488.728H774.656V557.328H778.656V488.728Z" fill="#3A404F"/>
<path d="M795.656 488.728H791.656V557.328H795.656V488.728Z" fill="#3A404F"/>
<path d="M812.656 488.728H808.656V557.328H812.656V488.728Z" fill="#3A404F"/>
<path d="M829.656 488.728H825.656V557.328H829.656V488.728Z" fill="#3A404F"/>
<path d="M846.656 488.728H842.656V557.328H846.656V488.728Z" fill="#3A404F"/>
<path d="M863.656 488.728H859.656V557.328H863.656V488.728Z" fill="#3A404F"/>
<path d="M880.656 488.728H876.656V557.328H880.656V488.728Z" fill="#3A404F"/>
<path d="M897.656 488.728H893.656V557.328H897.656V488.728Z" fill="#3A404F"/>
<path d="M955.336 419.728H809.976C807.903 419.729 805.914 420.554 804.448 422.02C802.982 423.486 802.158 425.474 802.156 427.548V480.508C802.158 482.582 802.982 484.57 804.448 486.036C805.914 487.502 807.903 488.327 809.976 488.328H955.336C957.41 488.327 959.398 487.502 960.864 486.036C962.331 484.57 963.155 482.582 963.156 480.508V427.548C963.155 425.474 962.331 423.486 960.864 422.02C959.398 420.554 957.41 419.729 955.336 419.728Z" fill="#E7E7E7"/>
<path d="M816.656 419.728H812.656V488.328H816.656V419.728Z" fill="#3A404F"/>
<path d="M833.656 419.728H829.656V488.328H833.656V419.728Z" fill="#3A404F"/>
<path d="M850.656 419.728H846.656V488.328H850.656V419.728Z" fill="#3A404F"/>
<path d="M867.656 419.728H863.656V488.328H867.656V419.728Z" fill="#3A404F"/>
<path d="M884.656 419.728H880.656V488.328H884.656V419.728Z" fill="#3A404F"/>
<path d="M901.656 419.728H897.656V488.328H901.656V419.728Z" fill="#3A404F"/>
<path d="M918.656 419.728H914.656V488.328H918.656V419.728Z" fill="#3A404F"/>
<path d="M935.656 419.728H931.656V488.328H935.656V419.728Z" fill="#3A404F"/>
<path d="M952.656 419.728H948.656V488.328H952.656V419.728Z" fill="#3A404F"/>
<path d="M705.336 488.728H559.976C557.903 488.729 555.914 489.553 554.448 491.019C552.982 492.486 552.158 494.474 552.156 496.547V549.507C552.158 551.581 552.982 553.569 554.448 555.036C555.914 556.502 557.903 557.326 559.976 557.327H705.336C707.41 557.326 709.398 556.502 710.864 555.036C712.331 553.569 713.155 551.581 713.156 549.507V496.547C713.155 494.474 712.331 492.486 710.864 491.019C709.398 489.553 707.41 488.729 705.336 488.728Z" fill="#9F9F9F"/>
<path d="M566.656 488.728H562.656V557.328H566.656V488.728Z" fill="#3A404F"/>
<path d="M583.656 488.728H579.656V557.328H583.656V488.728Z" fill="#3A404F"/>
<path d="M600.656 488.728H596.656V557.328H600.656V488.728Z" fill="#3A404F"/>
<path d="M617.656 488.728H613.656V557.328H617.656V488.728Z" fill="#3A404F"/>
<path d="M634.656 488.728H630.656V557.328H634.656V488.728Z" fill="#3A404F"/>
<path d="M651.656 488.728H647.656V557.328H651.656V488.728Z" fill="#3A404F"/>
<path d="M668.656 488.728H664.656V557.328H668.656V488.728Z" fill="#3A404F"/>
<path d="M685.656 488.728H681.656V557.328H685.656V488.728Z" fill="#3A404F"/>
<path d="M702.656 488.728H698.656V557.328H702.656V488.728Z" fill="#3A404F"/>
<path d="M741.336 419.728H595.976C593.903 419.729 591.914 420.554 590.448 422.02C588.982 423.486 588.158 425.474 588.156 427.548V480.508C588.158 482.582 588.982 484.57 590.448 486.036C591.914 487.502 593.903 488.327 595.976 488.328H741.336C743.41 488.327 745.398 487.502 746.864 486.036C748.331 484.57 749.155 482.582 749.156 480.508V427.548C749.155 425.474 748.331 423.486 746.864 422.02C745.398 420.554 743.41 419.729 741.336 419.728Z" fill="white"/>
<path d="M602.656 419.728H598.656V488.328H602.656V419.728Z" fill="#3A404F"/>
<path d="M619.656 419.728H615.656V488.328H619.656V419.728Z" fill="#3A404F"/>
<path d="M636.656 419.728H632.656V488.328H636.656V419.728Z" fill="#3A404F"/>
<path d="M653.656 419.728H649.656V488.328H653.656V419.728Z" fill="#3A404F"/>
<path d="M670.656 419.728H666.656V488.328H670.656V419.728Z" fill="#3A404F"/>
<path d="M687.656 419.728H683.656V488.328H687.656V419.728Z" fill="#3A404F"/>
<path d="M704.656 419.728H700.656V488.328H704.656V419.728Z" fill="#3A404F"/>
<path d="M721.656 419.728H717.656V488.328H721.656V419.728Z" fill="#3A404F"/>
<path d="M738.656 419.728H734.656V488.328H738.656V419.728Z" fill="#3A404F"/>
<path d="M1211.31 561.378C1211.07 560.513 1210.76 559.669 1210.39 558.855L1192.54 520.459C1191.23 517.641 1189.14 515.257 1186.52 513.586C1183.91 511.915 1180.86 511.028 1177.76 511.028H1104.56C1101.45 511.028 1098.41 511.915 1095.79 513.586C1093.17 515.257 1091.08 517.641 1089.77 520.459L1075.1 552.028H656.748L642.54 521.459C641.23 518.641 639.143 516.257 636.524 514.586C633.905 512.915 630.863 512.028 627.756 512.028H554.556C551.746 512.029 548.985 512.758 546.541 514.143L534.233 492.165C533.42 490.714 532.149 489.573 530.619 488.921C529.089 488.27 527.385 488.144 525.776 488.564C524.166 488.984 522.742 489.926 521.725 491.242C520.708 492.558 520.156 494.175 520.156 495.838V668.445C520.156 671.017 520.663 673.563 521.647 675.939C522.631 678.315 524.073 680.474 525.892 682.292C527.71 684.111 529.869 685.553 532.245 686.537C534.621 687.521 537.167 688.028 539.739 688.028H1099.92C1102.53 688.028 1105.11 687.507 1107.51 686.495C1109.92 685.483 1112.09 684.002 1113.92 682.137L1208.62 585.302C1211.69 582.2 1213.63 578.15 1214.12 573.809C1214.61 569.467 1213.62 565.087 1211.31 561.378Z" fill="#3A404F"/>
<path d="M1112.75 549.528H1103.56C1101.6 549.526 1099.71 548.745 1098.33 547.358C1096.94 545.97 1096.16 544.089 1096.16 542.126V531.929C1096.16 529.967 1096.94 528.086 1098.33 526.698C1099.71 525.311 1101.6 524.53 1103.56 524.528H1112.75C1114.72 524.53 1116.6 525.311 1117.99 526.698C1119.37 528.086 1120.15 529.967 1120.16 531.929V542.126C1120.15 544.089 1119.37 545.97 1117.99 547.358C1116.6 548.745 1114.72 549.526 1112.75 549.528Z" fill="white"/>
<path d="M1145.75 549.528H1136.56C1134.6 549.526 1132.71 548.745 1131.33 547.358C1129.94 545.97 1129.16 544.089 1129.16 542.126V531.929C1129.16 529.967 1129.94 528.086 1131.33 526.698C1132.71 525.311 1134.6 524.53 1136.56 524.528H1145.75C1147.72 524.53 1149.6 525.311 1150.99 526.698C1152.37 528.086 1153.15 529.967 1153.16 531.929V542.126C1153.15 544.089 1152.37 545.97 1150.99 547.358C1149.6 548.745 1147.72 549.526 1145.75 549.528Z" fill="white"/>
<path d="M1178.75 549.528H1169.56C1167.6 549.526 1165.71 548.745 1164.33 547.358C1162.94 545.97 1162.16 544.089 1162.16 542.126V531.929C1162.16 529.967 1162.94 528.086 1164.33 526.698C1165.71 525.311 1167.6 524.53 1169.56 524.528H1178.75C1180.72 524.53 1182.6 525.311 1183.99 526.698C1185.37 528.086 1186.15 529.967 1186.16 531.929V542.126C1186.15 544.089 1185.37 545.97 1183.99 547.358C1182.6 548.745 1180.72 549.526 1178.75 549.528Z" fill="white"/>
<path d="M810.755 350.528H801.558C799.595 350.526 797.714 349.745 796.327 348.358C794.939 346.97 794.158 345.089 794.156 343.126V332.929C794.158 330.967 794.939 329.086 796.327 327.698C797.714 326.311 799.595 325.53 801.558 325.528H810.755C812.717 325.53 814.598 326.311 815.986 327.698C817.374 329.086 818.154 330.967 818.156 332.929V343.126C818.154 345.089 817.373 346.97 815.986 348.358C814.598 349.745 812.717 350.526 810.755 350.528Z" fill="white"/>
<path d="M843.755 350.528H834.558C832.595 350.526 830.714 349.745 829.327 348.358C827.939 346.97 827.158 345.089 827.156 343.126V332.929C827.158 330.967 827.939 329.086 829.327 327.698C830.714 326.311 832.595 325.53 834.558 325.528H843.755C845.717 325.53 847.598 326.311 848.986 327.698C850.374 329.086 851.154 330.967 851.156 332.929V343.126C851.154 345.089 850.373 346.97 848.986 348.358C847.598 349.745 845.717 350.526 843.755 350.528Z" fill="white"/>
<path d="M876.755 350.528H867.558C865.595 350.526 863.714 349.745 862.327 348.358C860.939 346.97 860.158 345.089 860.156 343.126V332.929C860.158 330.967 860.939 329.086 862.327 327.698C863.714 326.311 865.595 325.53 867.558 325.528H876.755C878.717 325.53 880.598 326.311 881.986 327.698C883.374 329.086 884.154 330.967 884.156 332.929V343.126C884.154 345.089 883.373 346.97 881.986 348.358C880.598 349.745 878.717 350.526 876.755 350.528Z" fill="white"/>
<path d="M562.755 550.528H553.558C551.595 550.526 549.714 549.745 548.327 548.358C546.939 546.97 546.158 545.089 546.156 543.126V532.929C546.158 530.967 546.939 529.086 548.327 527.698C549.714 526.311 551.595 525.53 553.558 525.528H562.755C564.717 525.53 566.598 526.311 567.986 527.698C569.374 529.086 570.154 530.967 570.156 532.929V543.126C570.154 545.089 569.374 546.97 567.986 548.358C566.598 549.745 564.717 550.526 562.755 550.528Z" fill="white"/>
<path d="M595.755 550.528H586.558C584.595 550.526 582.714 549.745 581.327 548.358C579.939 546.97 579.158 545.089 579.156 543.126V532.929C579.158 530.967 579.939 529.086 581.327 527.698C582.714 526.311 584.595 525.53 586.558 525.528H595.755C597.717 525.53 599.598 526.311 600.986 527.698C602.374 529.086 603.154 530.967 603.156 532.929V543.126C603.154 545.089 602.374 546.97 600.986 548.358C599.598 549.745 597.717 550.526 595.755 550.528Z" fill="white"/>
<path d="M628.755 550.528H619.558C617.595 550.526 615.714 549.745 614.327 548.358C612.939 546.97 612.158 545.089 612.156 543.126V532.929C612.158 530.967 612.939 529.086 614.327 527.698C615.714 526.311 617.595 525.53 619.558 525.528H628.755C630.717 525.53 632.598 526.311 633.986 527.698C635.374 529.086 636.154 530.967 636.156 532.929V543.126C636.154 545.089 635.374 546.97 633.986 548.358C632.598 549.745 630.717 550.526 628.755 550.528Z" fill="white"/>
<path d="M505.68 655.843C479.774 655.223 452.002 669.738 444.631 694.58L585.255 688.856C582.596 687.017 579.924 685.202 577.241 683.41C555.665 669.059 531.585 656.463 505.68 655.843Z" fill="#0075FF"/>
<path d="M585.255 688.856C603.955 701.782 622.205 715.577 643.041 724.551C694.636 746.771 754.029 736.408 808.317 721.966C862.604 707.524 918.02 689.174 973.7 696.618C1005.27 700.839 1035.08 713.191 1065.56 722.459C1096.03 731.727 1128.83 737.933 1159.57 729.612C1190.32 721.291 1218.06 694.906 1218.86 663.062C986.728 620.143 771.515 618.868 585.255 688.856Z" fill="#0075FF"/>
<path d="M618.412 14.5446C618.412 15.2209 619.171 15.7639 620.117 15.7639H912.719C913.664 15.7639 914.424 15.2209 914.424 14.5446C914.424 13.8683 913.664 13.3252 912.719 13.3252H620.117C619.171 13.3252 618.412 13.8683 618.412 14.5446Z" fill="#E9E9E9"/>
<path d="M380.442 188.684L383.338 265.345H376.289V274.023H395.99V265.345H390.244L390.654 188.684H380.442Z" fill="#3A404F"/>
<path d="M372.841 253.05C375.84 253.05 378.271 255.479 378.271 258.474V280.894C378.271 283.889 375.84 286.318 372.841 286.318C369.842 286.318 367.411 283.889 367.411 280.894V258.474C367.411 255.479 369.842 253.05 372.841 253.05Z" fill="#3A404F"/>
<path d="M400.351 253.05C403.349 253.05 405.78 255.479 405.78 258.474V280.894C405.78 283.889 403.349 286.318 400.351 286.318C397.352 286.318 394.921 283.889 394.921 280.894V258.474C394.921 255.479 397.352 253.05 400.351 253.05Z" fill="#3A404F"/>
<path d="M444.513 140.92L333.022 135.858L350.398 127.902L448.132 129.349L444.513 140.92Z" fill="#BBBBBB"/>
<path d="M0 152.162L13.4646 147.099L431.481 157.948L448.857 149.992L441.617 199.171L109.568 163.825L0 152.162Z" fill="white"/>
<path d="M107.509 180.729L109.568 163.825L441.617 199.171L439.807 224.122L107.509 180.729Z" fill="#3A404F"/>
<path d="M330.851 230.631C349.843 230.631 365.239 214.279 365.239 194.108C365.239 173.938 349.843 157.586 330.851 157.586C311.859 157.586 296.463 173.938 296.463 194.108C296.463 214.279 311.859 230.631 330.851 230.631Z" fill="#3F3D56"/>
<path d="M330.85 212.912C344.845 212.912 356.189 201.579 356.189 187.599C356.189 173.62 344.845 162.287 330.85 162.287C316.856 162.287 305.512 173.62 305.512 187.599C305.512 201.579 316.856 212.912 330.85 212.912Z" fill="#F4F4F4"/>
<path d="M613.558 188.684L610.662 265.345H617.711V274.023H598.01V265.345H603.756L603.345 188.684H613.558Z" fill="#3A404F"/>
<path d="M621.159 253.05H621.159C618.16 253.05 615.729 255.478 615.729 258.474V280.894C615.729 283.889 618.16 286.318 621.159 286.318H621.159C624.158 286.318 626.589 283.889 626.589 280.894V258.474C626.589 255.478 624.158 253.05 621.159 253.05Z" fill="#3A404F"/>
<path d="M593.649 253.05H593.649C590.651 253.05 588.22 255.478 588.22 258.474V280.894C588.22 283.889 590.651 286.318 593.649 286.318H593.649C596.648 286.318 599.079 283.889 599.079 280.894V258.474C599.079 255.478 596.648 253.05 593.649 253.05Z" fill="#3A404F"/>
<path d="M549.487 140.92L660.977 135.858L643.602 127.902L545.867 129.349L549.487 140.92Z" fill="#BBBBBB"/>
<path d="M509.582 125.339L504.514 13.9639L496.551 31.321L497.999 128.955L509.582 125.339Z" fill="#BBBBBB"/>
<path d="M993.856 152.062L980.392 147L562.375 157.848L545 149.893L552.24 199.071L884.289 163.726L993.856 152.062Z" fill="white"/>
<path d="M886.491 180.729L884.432 163.825L552.383 199.171L554.193 224.122L886.491 180.729Z" fill="#3A404F"/>
<path d="M663.149 230.631C682.141 230.631 697.537 214.279 697.537 194.108C697.537 173.938 682.141 157.586 663.149 157.586C644.157 157.586 628.761 173.938 628.761 194.108C628.761 214.279 644.157 230.631 663.149 230.631Z" fill="#3F3D56"/>
<path d="M663.149 212.912C677.143 212.912 688.488 201.579 688.488 187.599C688.488 173.62 677.143 162.287 663.149 162.287C649.155 162.287 637.811 173.62 637.811 187.599C637.811 201.579 649.155 212.912 663.149 212.912Z" fill="#F4F4F4"/>
<path d="M560.165 127.047L558.522 139.144L557.668 204.262C557.602 209.108 557.016 213.895 555.916 218.538C552.745 232.063 545.339 244.364 534.399 253.282C524.474 261.382 510.936 267.514 493.018 266.43C445.236 263.537 441.016 222.914 441.016 222.914L442.818 149.247L443.064 139.144L445.236 120.914C445.236 120.914 451.028 69.566 504.601 71.0124C558.174 72.4588 560.165 127.047 560.165 127.047Z" fill="white"/>
<path d="M456.82 110.066L467.68 92.7087L481.435 88.3694H528.493L540.076 92.7087L550.588 110.066L531.388 101.387H477.53L456.82 110.066Z" fill="#7F7F7F"/>
<path d="M734.616 25.9802C741.797 25.9802 747.619 20.1643 747.619 12.9901C747.619 5.81586 741.797 0 734.616 0C727.434 0 721.612 5.81586 721.612 12.9901C721.612 20.1643 727.434 25.9802 734.616 25.9802Z" fill="#D6D6D6"/>
<path d="M374.704 68.5004C381.885 68.5004 387.707 62.6846 387.707 55.5103C387.707 48.3361 381.885 42.5203 374.704 42.5203C367.522 42.5203 361.7 48.3361 361.7 55.5103C361.7 62.6846 367.522 68.5004 374.704 68.5004Z" fill="#D6D6D6"/>
<path d="M80.2656 299.327C80.2656 300.003 81.0248 300.546 81.9701 300.546H374.573C375.518 300.546 376.277 300.003 376.277 299.327C376.277 298.651 375.518 298.108 374.573 298.108H81.9701C81.0248 298.108 80.2656 298.651 80.2656 299.327Z" fill="#E9E9E9"/>
<path d="M196.469 310.763C203.651 310.763 209.473 304.947 209.473 297.773C209.473 290.598 203.651 284.782 196.469 284.782C189.288 284.782 183.466 290.598 183.466 297.773C183.466 304.947 189.288 310.763 196.469 310.763Z" fill="#D6D6D6"/>
</g>
<defs>
<clipPath id="clip0_81_666">
<rect width="1368" height="746" fill="white"/>
</clipPath>
</defs>
</svg>
