<svg xmlns="http://www.w3.org/2000/svg" width="600" height="538" viewBox="208 0 600 538" xmlns:xlink="http://www.w3.org/1999/xlink" role="img" artist="Katerina Limpitsouni" source="https://undraw.co/"><g transform="translate(-607 -170.695)"><g transform="translate(910.973 532.168)"><path d="M489.264,501.018l-140.887,29.7A15.708,15.708,0,0,1,329.788,518.6L305.612,403.9a15.708,15.708,0,0,1,12.117-18.589l140.887-29.7a15.708,15.708,0,0,1,18.589,12.117l24.176,114.7A15.708,15.708,0,0,1,489.264,501.018ZM318.11,387.118a13.86,13.86,0,0,0-10.691,16.4l24.176,114.7A13.86,13.86,0,0,0,348,528.908l140.887-29.7a13.86,13.86,0,0,0,10.691-16.4L475.4,368.113A13.86,13.86,0,0,0,459,357.421Z" transform="translate(-305.275 -355.278)" fill="#ccc"/><path d="M455.74,396.2l-71.1,14.987a2.521,2.521,0,0,1-2.981-1.72,2.428,2.428,0,0,1,1.845-3L455.88,391.21c2.826,1.593,1.933,4.555-.14,4.992Z" transform="translate(-311.153 -358.046)" fill="#ccc"/><path d="M458.588,409.715l-71.1,14.987a2.52,2.52,0,0,1-2.981-1.72,2.428,2.428,0,0,1,1.845-3l72.379-15.256c2.826,1.593,1.933,4.555-.14,4.992Z" transform="translate(-311.372 -359.087)" fill="#ccc"/><path d="M370.171,434.986l-21.7,4.574a2.734,2.734,0,0,1-3.236-2.109l-5.4-25.608a2.734,2.734,0,0,1,2.109-3.236l21.7-4.574a2.735,2.735,0,0,1,3.236,2.109l5.4,25.608a2.734,2.734,0,0,1-2.109,3.236Z" transform="translate(-307.933 -359.029)" fill="#ccc"/><path d="M461.074,437.43,352.556,460.3a2.521,2.521,0,0,1-2.981-1.72,2.428,2.428,0,0,1,1.845-3l109.794-23.143c2.826,1.593,1.933,4.555-.14,4.992Z" transform="translate(-308.681 -361.222)" fill="#ccc"/><path d="M463.923,450.947,355.405,473.821a2.521,2.521,0,0,1-2.981-1.72,2.428,2.428,0,0,1,1.845-3l109.794-23.143c2.826,1.593,1.933,4.555-.14,4.992Z" transform="translate(-308.901 -362.263)" fill="#ccc"/><path d="M466.77,464.455,358.253,487.329a2.52,2.52,0,0,1-2.981-1.72,2.428,2.428,0,0,1,1.845-3L466.91,459.463C469.737,461.056,468.843,464.018,466.77,464.455Z" transform="translate(-309.12 -363.304)" fill="#ccc"/><path d="M469.619,477.971,361.1,500.845a2.521,2.521,0,0,1-2.98-1.72,2.428,2.428,0,0,1,1.845-3l109.794-23.143c2.826,1.593,1.933,4.555-.14,4.992Z" transform="translate(-309.34 -364.345)" fill="#ccc"/><path d="M472.466,491.48,363.949,514.354a2.52,2.52,0,0,1-2.98-1.72,2.428,2.428,0,0,1,1.845-3l109.794-23.143c2.826,1.593,1.933,4.555-.14,4.992Z" transform="translate(-309.559 -365.386)" fill="#ccc"/></g><path d="M713.368,339.6H569.385a15.708,15.708,0,0,1-15.69-15.69V206.69A15.708,15.708,0,0,1,569.385,191H713.368a15.708,15.708,0,0,1,15.69,15.69V323.907a15.708,15.708,0,0,1-15.69,15.69ZM569.385,192.846a13.86,13.86,0,0,0-13.844,13.844V323.907a13.86,13.86,0,0,0,13.844,13.844H713.368a13.86,13.86,0,0,0,13.844-13.844V206.69a13.86,13.86,0,0,0-13.844-13.844Z" transform="translate(379.111 74.995)" fill="#ccc"/><path d="M702.684,228.733H630.018a2.521,2.521,0,0,1-2.562-2.3,2.428,2.428,0,0,1,2.424-2.558h73.97c2.437,2.141.952,4.856-1.167,4.856Z" transform="translate(373.43 72.462)" fill="#ccc"/><path d="M702.684,242.543H630.018a2.521,2.521,0,0,1-2.562-2.3,2.428,2.428,0,0,1,2.424-2.558h73.97c2.437,2.141.952,4.856-1.167,4.856Z" transform="translate(373.43 71.399)" fill="#ccc"/><path d="M611.133,248.171H588.956a2.734,2.734,0,0,1-2.731-2.731V219.269a2.734,2.734,0,0,1,2.731-2.731h22.177a2.735,2.735,0,0,1,2.731,2.731V245.44a2.734,2.734,0,0,1-2.731,2.731Z" transform="translate(376.605 73.028)" fill="#ccc"/><path d="M699.264,270.819h-110.9a2.521,2.521,0,0,1-2.562-2.3,2.428,2.428,0,0,1,2.425-2.558H700.431c2.437,2.141.952,4.856-1.167,4.856Z" transform="translate(376.639 69.22)" fill="#0075ff"/><path d="M699.264,284.633h-110.9a2.521,2.521,0,0,1-2.562-2.3,2.428,2.428,0,0,1,2.425-2.558H700.431C702.868,281.918,701.383,284.633,699.264,284.633Z" transform="translate(376.639 68.156)" fill="#0075ff"/><path d="M699.264,298.438h-110.9a2.52,2.52,0,0,1-2.562-2.3,2.428,2.428,0,0,1,2.424-2.558H700.431C702.868,295.723,701.383,298.438,699.264,298.438Z" transform="translate(376.639 67.093)" fill="#0075ff"/><path d="M699.264,312.251h-110.9a2.52,2.52,0,0,1-2.562-2.3,2.428,2.428,0,0,1,2.424-2.558H700.431c2.437,2.141.952,4.856-1.167,4.856Z" transform="translate(376.639 66.029)" fill="#0075ff"/><path d="M699.264,326.057h-110.9a2.521,2.521,0,0,1-2.562-2.3,2.428,2.428,0,0,1,2.425-2.558H700.431C702.868,323.342,701.383,326.057,699.264,326.057Z" transform="translate(376.639 64.965)" fill="#0075ff"/><path d="M685.531,178a4.62,4.62,0,0,1,4.615,4.615v14.767A4.62,4.62,0,0,1,685.531,202H604.31a4.62,4.62,0,0,1-4.615-4.615V182.615A4.62,4.62,0,0,1,604.31,178" transform="translate(375.568 75.997)" fill="#0075ff"/><g transform="translate(1195.289 402.641)"><path d="M938.368,496.6H794.385a15.708,15.708,0,0,1-15.69-15.69V363.69A15.708,15.708,0,0,1,794.385,348H938.368a15.708,15.708,0,0,1,15.69,15.69V480.907A15.708,15.708,0,0,1,938.368,496.6ZM794.385,349.846a13.86,13.86,0,0,0-13.844,13.844V480.907a13.86,13.86,0,0,0,13.844,13.844H938.368a13.86,13.86,0,0,0,13.844-13.844V363.69a13.86,13.86,0,0,0-13.844-13.844Z" transform="translate(-778.695 -336.001)" fill="#ccc"/><path d="M927.684,385.733H855.018a2.52,2.52,0,0,1-2.562-2.3,2.428,2.428,0,0,1,2.425-2.558h73.97c2.437,2.141.952,4.856-1.167,4.856Z" transform="translate(-784.377 -338.534)" fill="#ccc"/><path d="M927.684,399.543H855.018a2.521,2.521,0,0,1-2.562-2.3,2.428,2.428,0,0,1,2.425-2.558h73.97c2.437,2.141.952,4.856-1.167,4.856Z" transform="translate(-784.377 -339.598)" fill="#ccc"/><path d="M836.133,405.171H813.956a2.734,2.734,0,0,1-2.731-2.731V376.269a2.734,2.734,0,0,1,2.731-2.731h22.177a2.735,2.735,0,0,1,2.731,2.731V402.44a2.734,2.734,0,0,1-2.731,2.731Z" transform="translate(-781.201 -337.969)" fill="#0075ff"/><path d="M931.133,483.1H908.956a2.734,2.734,0,0,1-2.731-2.731v-15.1a2.734,2.734,0,0,1,2.731-2.731h22.177a2.735,2.735,0,0,1,2.731,2.731v15.1A2.734,2.734,0,0,1,931.133,483.1Z" transform="translate(-788.519 -344.825)" fill="#ccc"/><path d="M924.264,427.819h-110.9a2.521,2.521,0,0,1-2.562-2.3,2.428,2.428,0,0,1,2.424-2.558H925.431c2.437,2.141.952,4.856-1.167,4.856Z" transform="translate(-781.168 -341.776)" fill="#ccc"/><path d="M924.264,441.633h-110.9a2.52,2.52,0,0,1-2.562-2.3,2.428,2.428,0,0,1,2.424-2.558H925.431C927.868,438.918,926.383,441.633,924.264,441.633Z" transform="translate(-781.168 -342.84)" fill="#ccc"/><path d="M924.264,455.438h-110.9a2.52,2.52,0,0,1-2.562-2.3,2.428,2.428,0,0,1,2.424-2.558H925.431C927.868,452.723,926.383,455.438,924.264,455.438Z" transform="translate(-781.168 -343.904)" fill="#ccc"/><path d="M866.117,469.251H813.362a2.52,2.52,0,0,1-2.562-2.3,2.428,2.428,0,0,1,2.424-2.558h54.059c2.437,2.141.952,4.856-1.167,4.856Z" transform="translate(-781.168 -344.968)" fill="#ccc"/><path d="M866.117,483.057H813.362a2.521,2.521,0,0,1-2.562-2.3,2.428,2.428,0,0,1,2.424-2.558h54.059C869.721,480.342,868.236,483.057,866.117,483.057Z" transform="translate(-781.168 -346.031)" fill="#ccc"/><path d="M910.531,359H829.31a4.62,4.62,0,0,1-4.615-4.615V339.615A4.62,4.62,0,0,1,829.31,335h81.221a4.62,4.62,0,0,1,4.615,4.615v14.767A4.62,4.62,0,0,1,910.531,359Z" transform="translate(-782.238 -335)" fill="#0075ff"/></g><path d="M583.878,721.846H232.228a.923.923,0,1,1,0-1.846h351.65a.923.923,0,0,1,0,1.846Z" transform="translate(375.695 87.823)" fill="#ccc"/><g transform="translate(815.864 170.695)"><circle cx="5.969" cy="5.969" r="5.969" transform="translate(0 0)" fill="#ddd"/><circle cx="5.969" cy="5.969" r="5.969" transform="translate(0 23.788)" fill="#ddd"/><circle cx="5.969" cy="5.969" r="5.969" transform="translate(0 47.576)" fill="#ddd"/><circle cx="5.969" cy="5.969" r="5.969" transform="translate(0 71.364)" fill="#ddd"/><circle cx="5.969" cy="5.969" r="5.969" transform="translate(24.92 0)" fill="#ddd"/><circle cx="5.969" cy="5.969" r="5.969" transform="translate(24.92 23.788)" fill="#ddd"/><circle cx="5.969" cy="5.969" r="5.969" transform="translate(24.92 47.576)" fill="#ddd"/><circle cx="5.969" cy="5.969" r="5.969" transform="translate(24.92 71.364)" fill="#ddd"/><circle cx="5.969" cy="5.969" r="5.969" transform="translate(49.84 0)" fill="#ddd"/><circle cx="5.969" cy="5.969" r="5.969" transform="translate(49.84 23.788)" fill="#ddd"/><circle cx="5.969" cy="5.969" r="5.969" transform="translate(49.84 47.576)" fill="#ddd"/><circle cx="5.969" cy="5.969" r="5.969" transform="translate(49.84 71.364)" fill="#ddd"/><circle cx="5.969" cy="5.969" r="5.969" transform="translate(74.76 0)" fill="#ddd"/><circle cx="5.969" cy="5.969" r="5.969" transform="translate(74.76 23.788)" fill="#ddd"/><circle cx="5.969" cy="5.969" r="5.969" transform="translate(74.76 47.576)" fill="#ddd"/><circle cx="5.969" cy="5.969" r="5.969" transform="translate(74.76 71.364)" fill="#ddd"/><circle cx="5.969" cy="5.969" r="5.969" transform="translate(99.68 0)" fill="#ddd"/><circle cx="5.969" cy="5.969" r="5.969" transform="translate(99.68 23.788)" fill="#ddd"/><circle cx="5.969" cy="5.969" r="5.969" transform="translate(99.68 47.576)" fill="#ddd"/><circle cx="5.969" cy="5.969" r="5.969" transform="translate(99.68 71.364)" fill="#ddd"/><circle cx="5.969" cy="5.969" r="5.969" transform="translate(124.6 0)" fill="#ddd"/><circle cx="5.969" cy="5.969" r="5.969" transform="translate(124.6 23.788)" fill="#ddd"/><circle cx="5.969" cy="5.969" r="5.969" transform="translate(124.6 47.576)" fill="#ddd"/><circle cx="5.969" cy="5.969" r="5.969" transform="translate(124.6 71.364)" fill="#ddd"/></g><g transform="translate(1320.726 583.542)"><circle cx="5.969" cy="5.969" r="5.969" fill="#ddd"/><circle cx="5.969" cy="5.969" r="5.969" transform="translate(0 23.788)" fill="#ddd"/><circle cx="5.969" cy="5.969" r="5.969" transform="translate(0 47.576)" fill="#ddd"/><circle cx="5.969" cy="5.969" r="5.969" transform="translate(24.92)" fill="#ddd"/><circle cx="5.969" cy="5.969" r="5.969" transform="translate(24.92 23.788)" fill="#ddd"/><circle cx="5.969" cy="5.969" r="5.969" transform="translate(24.92 47.576)" fill="#ddd"/><circle cx="5.969" cy="5.969" r="5.969" transform="translate(49.84)" fill="#ddd"/><circle cx="5.969" cy="5.969" r="5.969" transform="translate(49.84 23.788)" fill="#ddd"/><circle cx="5.969" cy="5.969" r="5.969" transform="translate(49.84 47.576)" fill="#ddd"/><circle cx="5.969" cy="5.969" r="5.969" transform="translate(74.76)" fill="#ddd"/><circle cx="5.969" cy="5.969" r="5.969" transform="translate(74.76 23.788)" fill="#ddd"/><circle cx="5.969" cy="5.969" r="5.969" transform="translate(74.76 47.576)" fill="#ddd"/></g></g></svg>